<?xml version="1.0" encoding="UTF-8" standalone="no"?>
<!DOCTYPE svg PUBLIC "-//W3C//DTD SVG 1.1//EN"
 "http://www.w3.org/Graphics/SVG/1.1/DTD/svg11.dtd">
<!-- Generated by graphviz version 2.38.0 (20140413.2041)
 -->
<!-- Title: %3 Pages: 1 -->
<svg width="158pt" height="92pt"
 viewBox="0.00 0.00 158.00 91.70" xmlns="http://www.w3.org/2000/svg" xmlns:xlink="http://www.w3.org/1999/xlink">
<g id="graph0" class="graph" transform="scale(1 1) rotate(0) translate(4 87.6985)">
<title>%3</title>
<polygon fill="white" stroke="none" points="-4,4 -4,-87.6985 154,-87.6985 154,4 -4,4"/>
<!-- &#45;1 -->
<g id="node1" class="node"><title>&#45;1</title>
<polygon fill="lightgray" stroke="black" points="24,-83.6985 0,-83.6985 0,-65.6985 24,-65.6985 24,-83.6985"/>
<text text-anchor="middle" x="12" y="-72.4985" font-family="Times New Roman,serif" font-size="9.00">&#45;1</text>
</g>
<!-- 0 -->
<g id="node5" class="node"><title>0</title>
<ellipse fill="lightblue" stroke="black" cx="33" cy="-14.8492" rx="14.7" ry="14.7"/>
<text text-anchor="middle" x="33" y="-12.6492" font-family="Times New Roman,serif" font-size="9.00">0</text>
</g>
<!-- &#45;1&#45;&gt;0 -->
<g id="edge2" class="edge"><title>&#45;1&#45;&gt;0</title>
<path fill="none" stroke="green" stroke-width="0.543967" d="M14.92,-65.6548C17.4627,-58.6501 21.2755,-48.1471 24.7451,-38.5892"/>
<polygon fill="green" stroke="green" stroke-width="0.543967" points="28.0466,-39.7515 28.169,-29.1573 21.4667,-37.3628 28.0466,-39.7515"/>
</g>
<!-- &#45;2 -->
<g id="node2" class="node"><title>&#45;2</title>
<polygon fill="lightgray" stroke="black" points="108,-83.6985 84,-83.6985 84,-65.6985 108,-65.6985 108,-83.6985"/>
<text text-anchor="middle" x="96" y="-72.4985" font-family="Times New Roman,serif" font-size="9.00">&#45;2</text>
</g>
<!-- &#45;3 -->
<g id="node3" class="node"><title>&#45;3</title>
<polygon fill="lightgray" stroke="black" points="150,-83.6985 126,-83.6985 126,-65.6985 150,-65.6985 150,-83.6985"/>
<text text-anchor="middle" x="138" y="-72.4985" font-family="Times New Roman,serif" font-size="9.00">&#45;3</text>
</g>
<!-- &#45;4 -->
<g id="node4" class="node"><title>&#45;4</title>
<polygon fill="lightgray" stroke="black" points="66,-83.6985 42,-83.6985 42,-65.6985 66,-65.6985 66,-83.6985"/>
<text text-anchor="middle" x="54" y="-72.4985" font-family="Times New Roman,serif" font-size="9.00">&#45;4</text>
</g>
<!-- &#45;4&#45;&gt;0 -->
<g id="edge1" class="edge"><title>&#45;4&#45;&gt;0</title>
<path fill="none" stroke="red" stroke-width="0.467375" d="M51.08,-65.6548C48.5373,-58.6501 44.7245,-48.1471 41.2549,-38.5892"/>
<polygon fill="red" stroke="red" stroke-width="0.467375" points="44.5333,-37.3628 37.831,-29.1573 37.9534,-39.7515 44.5333,-37.3628"/>
</g>
</g>
</svg>
