<?xml version="1.0" encoding="utf-8" standalone="no"?>
<!DOCTYPE svg PUBLIC "-//W3C//DTD SVG 1.1//EN"
  "http://www.w3.org/Graphics/SVG/1.1/DTD/svg11.dtd">
<!-- Created with matplotlib (https://matplotlib.org/) -->
<svg height="345.6pt" version="1.1" viewBox="0 0 460.8 345.6" width="460.8pt" xmlns="http://www.w3.org/2000/svg" xmlns:xlink="http://www.w3.org/1999/xlink">
 <defs>
  <style type="text/css">
*{stroke-linecap:butt;stroke-linejoin:round;}
  </style>
 </defs>
 <g id="figure_1">
  <g id="patch_1">
   <path d="M 0 345.6 
L 460.8 345.6 
L 460.8 0 
L 0 0 
z
" style="fill:#ffffff;"/>
  </g>
  <g id="axes_1">
   <g id="patch_2">
    <path d="M 57.6 307.584 
L 414.72 307.584 
L 414.72 41.472 
L 57.6 41.472 
z
" style="fill:#ffffff;"/>
   </g>
   <g id="PolyCollection_1">
    <path clip-path="url(#p32ea0b59d6)" d="M 73.832727 262.859294 
L 73.832727 307.584 
L 77.112066 307.584 
L 80.391405 307.584 
L 83.670744 307.584 
L 86.950083 307.584 
L 90.229421 307.584 
L 93.50876 307.584 
L 96.788099 307.584 
L 100.067438 307.584 
L 103.346777 307.584 
L 106.626116 307.584 
L 109.905455 307.584 
L 113.184793 307.584 
L 116.464132 307.584 
L 119.743471 307.584 
L 123.02281 307.584 
L 126.302149 307.584 
L 129.581488 307.584 
L 132.860826 307.584 
L 136.140165 307.584 
L 139.419504 307.584 
L 142.698843 307.584 
L 145.978182 307.584 
L 149.257521 307.584 
L 152.53686 307.584 
L 155.816198 307.584 
L 159.095537 307.584 
L 162.374876 307.584 
L 165.654215 307.584 
L 168.933554 307.584 
L 172.212893 307.584 
L 175.492231 307.584 
L 178.77157 307.584 
L 182.050909 307.584 
L 185.330248 307.584 
L 188.609587 307.584 
L 191.888926 307.584 
L 195.168264 307.584 
L 198.447603 307.584 
L 201.726942 307.584 
L 205.006281 307.584 
L 208.28562 307.584 
L 211.564959 307.584 
L 214.844298 307.584 
L 218.123636 307.584 
L 221.402975 307.584 
L 224.682314 307.584 
L 227.961653 307.584 
L 231.240992 307.584 
L 234.520331 307.584 
L 237.799669 307.584 
L 241.079008 307.584 
L 244.358347 307.584 
L 247.637686 307.584 
L 250.917025 307.584 
L 254.196364 307.584 
L 257.475702 307.584 
L 260.755041 307.584 
L 264.03438 307.584 
L 267.313719 307.584 
L 270.593058 307.584 
L 273.872397 307.584 
L 277.151736 307.584 
L 280.431074 307.584 
L 283.710413 307.584 
L 286.989752 307.584 
L 290.269091 307.584 
L 293.54843 307.584 
L 296.827769 307.584 
L 300.107107 307.584 
L 303.386446 307.584 
L 306.665785 307.584 
L 309.945124 307.584 
L 313.224463 307.584 
L 316.503802 307.584 
L 319.78314 307.584 
L 323.062479 307.584 
L 326.341818 307.584 
L 329.621157 307.584 
L 332.900496 307.584 
L 336.179835 307.584 
L 339.459174 307.584 
L 342.738512 307.584 
L 346.017851 307.584 
L 349.29719 307.584 
L 352.576529 307.584 
L 355.855868 307.584 
L 359.135207 307.584 
L 362.414545 307.584 
L 365.693884 307.584 
L 368.973223 307.584 
L 372.252562 307.584 
L 375.531901 307.584 
L 378.81124 307.584 
L 382.090579 307.584 
L 385.369917 307.584 
L 388.649256 307.584 
L 391.928595 307.584 
L 395.207934 307.584 
L 398.487273 307.584 
L 398.487273 307.584 
L 398.487273 307.584 
L 395.207934 307.584 
L 391.928595 307.584 
L 388.649256 307.584 
L 385.369917 307.584 
L 382.090579 307.584 
L 378.81124 307.584 
L 375.531901 307.584 
L 372.252562 307.584 
L 368.973223 307.584 
L 365.693884 307.584 
L 362.414545 307.584 
L 359.135207 307.584 
L 355.855868 307.584 
L 352.576529 307.584 
L 349.29719 307.584 
L 346.017851 307.584 
L 342.738512 307.584 
L 339.459174 307.584 
L 336.179835 307.584 
L 332.900496 307.584 
L 329.621157 307.584 
L 326.341818 307.584 
L 323.062479 307.584 
L 319.78314 307.584 
L 316.503802 307.584 
L 313.224463 262.859294 
L 309.945124 262.859294 
L 306.665785 230.558118 
L 303.386446 230.558118 
L 300.107107 228.073412 
L 296.827769 228.073412 
L 293.54843 280.252235 
L 290.269091 280.252235 
L 286.989752 255.405176 
L 283.710413 255.405176 
L 280.431074 267.828706 
L 277.151736 267.828706 
L 273.872397 252.920471 
L 270.593058 252.920471 
L 267.313719 265.344 
L 264.03438 265.344 
L 260.755041 247.951059 
L 257.475702 247.951059 
L 254.196364 238.012235 
L 250.917025 238.012235 
L 247.637686 250.435765 
L 244.358347 250.435765 
L 241.079008 233.042824 
L 237.799669 233.042824 
L 234.520331 242.981647 
L 231.240992 242.981647 
L 227.961653 247.951059 
L 224.682314 247.951059 
L 221.402975 240.496941 
L 218.123636 240.496941 
L 214.844298 235.527529 
L 211.564959 235.527529 
L 208.28562 255.405176 
L 205.006281 255.405176 
L 201.726942 240.496941 
L 198.447603 240.496941 
L 195.168264 250.435765 
L 191.888926 250.435765 
L 188.609587 223.104 
L 185.330248 223.104 
L 182.050909 225.588706 
L 178.77157 225.588706 
L 175.492231 235.527529 
L 172.212893 235.527529 
L 168.933554 235.527529 
L 165.654215 235.527529 
L 162.374876 295.160471 
L 159.095537 295.160471 
L 155.816198 302.614588 
L 152.53686 302.614588 
L 149.257521 272.798118 
L 145.978182 272.798118 
L 142.698843 282.736941 
L 139.419504 282.736941 
L 136.140165 302.614588 
L 132.860826 302.614588 
L 129.581488 282.736941 
L 126.302149 282.736941 
L 123.02281 277.767529 
L 119.743471 277.767529 
L 116.464132 272.798118 
L 113.184793 272.798118 
L 109.905455 277.767529 
L 106.626116 277.767529 
L 103.346777 250.435765 
L 100.067438 250.435765 
L 96.788099 220.619294 
L 93.50876 220.619294 
L 90.229421 272.798118 
L 86.950083 272.798118 
L 83.670744 280.252235 
L 80.391405 280.252235 
L 77.112066 262.859294 
L 73.832727 262.859294 
z
" style="fill:#1f77b4;"/>
   </g>
   <g id="PolyCollection_2">
    <path clip-path="url(#p32ea0b59d6)" d="M 73.832727 240.496941 
L 73.832727 262.859294 
L 77.112066 262.859294 
L 80.391405 280.252235 
L 83.670744 280.252235 
L 86.950083 272.798118 
L 90.229421 272.798118 
L 93.50876 220.619294 
L 96.788099 220.619294 
L 100.067438 250.435765 
L 103.346777 250.435765 
L 106.626116 277.767529 
L 109.905455 277.767529 
L 113.184793 272.798118 
L 116.464132 272.798118 
L 119.743471 277.767529 
L 123.02281 277.767529 
L 126.302149 282.736941 
L 129.581488 282.736941 
L 132.860826 302.614588 
L 136.140165 302.614588 
L 139.419504 282.736941 
L 142.698843 282.736941 
L 145.978182 272.798118 
L 149.257521 272.798118 
L 152.53686 302.614588 
L 155.816198 302.614588 
L 159.095537 295.160471 
L 162.374876 295.160471 
L 165.654215 235.527529 
L 168.933554 235.527529 
L 172.212893 235.527529 
L 175.492231 235.527529 
L 178.77157 225.588706 
L 182.050909 225.588706 
L 185.330248 223.104 
L 188.609587 223.104 
L 191.888926 250.435765 
L 195.168264 250.435765 
L 198.447603 240.496941 
L 201.726942 240.496941 
L 205.006281 255.405176 
L 208.28562 255.405176 
L 211.564959 235.527529 
L 214.844298 235.527529 
L 218.123636 240.496941 
L 221.402975 240.496941 
L 224.682314 247.951059 
L 227.961653 247.951059 
L 231.240992 242.981647 
L 234.520331 242.981647 
L 237.799669 233.042824 
L 241.079008 233.042824 
L 244.358347 250.435765 
L 247.637686 250.435765 
L 250.917025 238.012235 
L 254.196364 238.012235 
L 257.475702 247.951059 
L 260.755041 247.951059 
L 264.03438 265.344 
L 267.313719 265.344 
L 270.593058 252.920471 
L 273.872397 252.920471 
L 277.151736 267.828706 
L 280.431074 267.828706 
L 283.710413 255.405176 
L 286.989752 255.405176 
L 290.269091 280.252235 
L 293.54843 280.252235 
L 296.827769 228.073412 
L 300.107107 228.073412 
L 303.386446 230.558118 
L 306.665785 230.558118 
L 309.945124 262.859294 
L 313.224463 262.859294 
L 316.503802 307.584 
L 319.78314 307.584 
L 323.062479 307.584 
L 326.341818 307.584 
L 329.621157 307.584 
L 332.900496 307.584 
L 336.179835 307.584 
L 339.459174 307.584 
L 342.738512 307.584 
L 346.017851 307.584 
L 349.29719 307.584 
L 352.576529 307.584 
L 355.855868 307.584 
L 359.135207 307.584 
L 362.414545 307.584 
L 365.693884 307.584 
L 368.973223 307.584 
L 372.252562 307.584 
L 375.531901 307.584 
L 378.81124 307.584 
L 382.090579 307.584 
L 385.369917 307.584 
L 388.649256 307.584 
L 391.928595 307.584 
L 395.207934 307.584 
L 398.487273 307.584 
L 398.487273 272.798118 
L 398.487273 272.798118 
L 395.207934 272.798118 
L 391.928595 277.767529 
L 388.649256 277.767529 
L 385.369917 242.981647 
L 382.090579 242.981647 
L 378.81124 285.221647 
L 375.531901 285.221647 
L 372.252562 280.252235 
L 368.973223 280.252235 
L 365.693884 260.374588 
L 362.414545 260.374588 
L 359.135207 270.313412 
L 355.855868 270.313412 
L 352.576529 267.828706 
L 349.29719 267.828706 
L 346.017851 290.191059 
L 342.738512 290.191059 
L 339.459174 265.344 
L 336.179835 265.344 
L 332.900496 257.889882 
L 329.621157 257.889882 
L 326.341818 247.951059 
L 323.062479 247.951059 
L 319.78314 260.374588 
L 316.503802 260.374588 
L 313.224463 238.012235 
L 309.945124 238.012235 
L 306.665785 193.287529 
L 303.386446 193.287529 
L 300.107107 185.833412 
L 296.827769 185.833412 
L 293.54843 245.466353 
L 290.269091 245.466353 
L 286.989752 230.558118 
L 283.710413 230.558118 
L 280.431074 235.527529 
L 277.151736 235.527529 
L 273.872397 235.527529 
L 270.593058 235.527529 
L 267.313719 228.073412 
L 264.03438 228.073412 
L 260.755041 225.588706 
L 257.475702 225.588706 
L 254.196364 200.741647 
L 250.917025 200.741647 
L 247.637686 203.226353 
L 244.358347 203.226353 
L 241.079008 213.165176 
L 237.799669 213.165176 
L 234.520331 225.588706 
L 231.240992 225.588706 
L 227.961653 223.104 
L 224.682314 223.104 
L 221.402975 218.134588 
L 218.123636 218.134588 
L 214.844298 215.649882 
L 211.564959 215.649882 
L 208.28562 205.711059 
L 205.006281 205.711059 
L 201.726942 208.195765 
L 198.447603 208.195765 
L 195.168264 220.619294 
L 191.888926 220.619294 
L 188.609587 208.195765 
L 185.330248 208.195765 
L 182.050909 210.680471 
L 178.77157 210.680471 
L 175.492231 223.104 
L 172.212893 223.104 
L 168.933554 233.042824 
L 165.654215 233.042824 
L 162.374876 270.313412 
L 159.095537 270.313412 
L 155.816198 242.981647 
L 152.53686 242.981647 
L 149.257521 225.588706 
L 145.978182 225.588706 
L 142.698843 247.951059 
L 139.419504 247.951059 
L 136.140165 262.859294 
L 132.860826 262.859294 
L 129.581488 255.405176 
L 126.302149 255.405176 
L 123.02281 220.619294 
L 119.743471 220.619294 
L 116.464132 235.527529 
L 113.184793 235.527529 
L 109.905455 247.951059 
L 106.626116 247.951059 
L 103.346777 230.558118 
L 100.067438 230.558118 
L 96.788099 200.741647 
L 93.50876 200.741647 
L 90.229421 240.496941 
L 86.950083 240.496941 
L 83.670744 250.435765 
L 80.391405 250.435765 
L 77.112066 240.496941 
L 73.832727 240.496941 
z
" style="fill:#ff7f0e;"/>
   </g>
   <g id="PolyCollection_3">
    <path clip-path="url(#p32ea0b59d6)" d="M 73.832727 160.986353 
L 73.832727 240.496941 
L 77.112066 240.496941 
L 80.391405 250.435765 
L 83.670744 250.435765 
L 86.950083 240.496941 
L 90.229421 240.496941 
L 93.50876 200.741647 
L 96.788099 200.741647 
L 100.067438 230.558118 
L 103.346777 230.558118 
L 106.626116 247.951059 
L 109.905455 247.951059 
L 113.184793 235.527529 
L 116.464132 235.527529 
L 119.743471 220.619294 
L 123.02281 220.619294 
L 126.302149 255.405176 
L 129.581488 255.405176 
L 132.860826 262.859294 
L 136.140165 262.859294 
L 139.419504 247.951059 
L 142.698843 247.951059 
L 145.978182 225.588706 
L 149.257521 225.588706 
L 152.53686 242.981647 
L 155.816198 242.981647 
L 159.095537 270.313412 
L 162.374876 270.313412 
L 165.654215 233.042824 
L 168.933554 233.042824 
L 172.212893 223.104 
L 175.492231 223.104 
L 178.77157 210.680471 
L 182.050909 210.680471 
L 185.330248 208.195765 
L 188.609587 208.195765 
L 191.888926 220.619294 
L 195.168264 220.619294 
L 198.447603 208.195765 
L 201.726942 208.195765 
L 205.006281 205.711059 
L 208.28562 205.711059 
L 211.564959 215.649882 
L 214.844298 215.649882 
L 218.123636 218.134588 
L 221.402975 218.134588 
L 224.682314 223.104 
L 227.961653 223.104 
L 231.240992 225.588706 
L 234.520331 225.588706 
L 237.799669 213.165176 
L 241.079008 213.165176 
L 244.358347 203.226353 
L 247.637686 203.226353 
L 250.917025 200.741647 
L 254.196364 200.741647 
L 257.475702 225.588706 
L 260.755041 225.588706 
L 264.03438 228.073412 
L 267.313719 228.073412 
L 270.593058 235.527529 
L 273.872397 235.527529 
L 277.151736 235.527529 
L 280.431074 235.527529 
L 283.710413 230.558118 
L 286.989752 230.558118 
L 290.269091 245.466353 
L 293.54843 245.466353 
L 296.827769 185.833412 
L 300.107107 185.833412 
L 303.386446 193.287529 
L 306.665785 193.287529 
L 309.945124 238.012235 
L 313.224463 238.012235 
L 316.503802 260.374588 
L 319.78314 260.374588 
L 323.062479 247.951059 
L 326.341818 247.951059 
L 329.621157 257.889882 
L 332.900496 257.889882 
L 336.179835 265.344 
L 339.459174 265.344 
L 342.738512 290.191059 
L 346.017851 290.191059 
L 349.29719 267.828706 
L 352.576529 267.828706 
L 355.855868 270.313412 
L 359.135207 270.313412 
L 362.414545 260.374588 
L 365.693884 260.374588 
L 368.973223 280.252235 
L 372.252562 280.252235 
L 375.531901 285.221647 
L 378.81124 285.221647 
L 382.090579 242.981647 
L 385.369917 242.981647 
L 388.649256 277.767529 
L 391.928595 277.767529 
L 395.207934 272.798118 
L 398.487273 272.798118 
L 398.487273 205.711059 
L 398.487273 205.711059 
L 395.207934 205.711059 
L 391.928595 188.318118 
L 388.649256 188.318118 
L 385.369917 198.256941 
L 382.090579 198.256941 
L 378.81124 218.134588 
L 375.531901 218.134588 
L 372.252562 193.287529 
L 368.973223 193.287529 
L 365.693884 185.833412 
L 362.414545 185.833412 
L 359.135207 200.741647 
L 355.855868 200.741647 
L 352.576529 198.256941 
L 349.29719 198.256941 
L 346.017851 215.649882 
L 342.738512 215.649882 
L 339.459174 210.680471 
L 336.179835 210.680471 
L 332.900496 235.527529 
L 329.621157 235.527529 
L 326.341818 230.558118 
L 323.062479 230.558118 
L 319.78314 225.588706 
L 316.503802 225.588706 
L 313.224463 215.649882 
L 309.945124 215.649882 
L 306.665785 175.894588 
L 303.386446 175.894588 
L 300.107107 180.864 
L 296.827769 180.864 
L 293.54843 183.348706 
L 290.269091 183.348706 
L 286.989752 185.833412 
L 283.710413 185.833412 
L 280.431074 208.195765 
L 277.151736 208.195765 
L 273.872397 203.226353 
L 270.593058 203.226353 
L 267.313719 185.833412 
L 264.03438 185.833412 
L 260.755041 173.409882 
L 257.475702 173.409882 
L 254.196364 180.864 
L 250.917025 180.864 
L 247.637686 180.864 
L 244.358347 180.864 
L 241.079008 173.409882 
L 237.799669 173.409882 
L 234.520331 208.195765 
L 231.240992 208.195765 
L 227.961653 188.318118 
L 224.682314 188.318118 
L 221.402975 188.318118 
L 218.123636 188.318118 
L 214.844298 190.802824 
L 211.564959 190.802824 
L 208.28562 173.409882 
L 205.006281 173.409882 
L 201.726942 188.318118 
L 198.447603 188.318118 
L 195.168264 195.772235 
L 191.888926 195.772235 
L 188.609587 180.864 
L 185.330248 180.864 
L 182.050909 175.894588 
L 178.77157 175.894588 
L 175.492231 193.287529 
L 172.212893 193.287529 
L 168.933554 180.864 
L 165.654215 180.864 
L 162.374876 238.012235 
L 159.095537 238.012235 
L 155.816198 210.680471 
L 152.53686 210.680471 
L 149.257521 215.649882 
L 145.978182 215.649882 
L 142.698843 240.496941 
L 139.419504 240.496941 
L 136.140165 235.527529 
L 132.860826 235.527529 
L 129.581488 245.466353 
L 126.302149 245.466353 
L 123.02281 158.501647 
L 119.743471 158.501647 
L 116.464132 210.680471 
L 113.184793 210.680471 
L 109.905455 200.741647 
L 106.626116 200.741647 
L 103.346777 198.256941 
L 100.067438 198.256941 
L 96.788099 190.802824 
L 93.50876 190.802824 
L 90.229421 205.711059 
L 86.950083 205.711059 
L 83.670744 210.680471 
L 80.391405 210.680471 
L 77.112066 160.986353 
L 73.832727 160.986353 
z
" style="fill:#2ca02c;"/>
   </g>
   <g id="PolyCollection_4">
    <path clip-path="url(#p32ea0b59d6)" d="M 73.832727 143.593412 
L 73.832727 160.986353 
L 77.112066 160.986353 
L 80.391405 210.680471 
L 83.670744 210.680471 
L 86.950083 205.711059 
L 90.229421 205.711059 
L 93.50876 190.802824 
L 96.788099 190.802824 
L 100.067438 198.256941 
L 103.346777 198.256941 
L 106.626116 200.741647 
L 109.905455 200.741647 
L 113.184793 210.680471 
L 116.464132 210.680471 
L 119.743471 158.501647 
L 123.02281 158.501647 
L 126.302149 245.466353 
L 129.581488 245.466353 
L 132.860826 235.527529 
L 136.140165 235.527529 
L 139.419504 240.496941 
L 142.698843 240.496941 
L 145.978182 215.649882 
L 149.257521 215.649882 
L 152.53686 210.680471 
L 155.816198 210.680471 
L 159.095537 238.012235 
L 162.374876 238.012235 
L 165.654215 180.864 
L 168.933554 180.864 
L 172.212893 193.287529 
L 175.492231 193.287529 
L 178.77157 175.894588 
L 182.050909 175.894588 
L 185.330248 180.864 
L 188.609587 180.864 
L 191.888926 195.772235 
L 195.168264 195.772235 
L 198.447603 188.318118 
L 201.726942 188.318118 
L 205.006281 173.409882 
L 208.28562 173.409882 
L 211.564959 190.802824 
L 214.844298 190.802824 
L 218.123636 188.318118 
L 221.402975 188.318118 
L 224.682314 188.318118 
L 227.961653 188.318118 
L 231.240992 208.195765 
L 234.520331 208.195765 
L 237.799669 173.409882 
L 241.079008 173.409882 
L 244.358347 180.864 
L 247.637686 180.864 
L 250.917025 180.864 
L 254.196364 180.864 
L 257.475702 173.409882 
L 260.755041 173.409882 
L 264.03438 185.833412 
L 267.313719 185.833412 
L 270.593058 203.226353 
L 273.872397 203.226353 
L 277.151736 208.195765 
L 280.431074 208.195765 
L 283.710413 185.833412 
L 286.989752 185.833412 
L 290.269091 183.348706 
L 293.54843 183.348706 
L 296.827769 180.864 
L 300.107107 180.864 
L 303.386446 175.894588 
L 306.665785 175.894588 
L 309.945124 215.649882 
L 313.224463 215.649882 
L 316.503802 225.588706 
L 319.78314 225.588706 
L 323.062479 230.558118 
L 326.341818 230.558118 
L 329.621157 235.527529 
L 332.900496 235.527529 
L 336.179835 210.680471 
L 339.459174 210.680471 
L 342.738512 215.649882 
L 346.017851 215.649882 
L 349.29719 198.256941 
L 352.576529 198.256941 
L 355.855868 200.741647 
L 359.135207 200.741647 
L 362.414545 185.833412 
L 365.693884 185.833412 
L 368.973223 193.287529 
L 372.252562 193.287529 
L 375.531901 218.134588 
L 378.81124 218.134588 
L 382.090579 198.256941 
L 385.369917 198.256941 
L 388.649256 188.318118 
L 391.928595 188.318118 
L 395.207934 205.711059 
L 398.487273 205.711059 
L 398.487273 163.471059 
L 398.487273 163.471059 
L 395.207934 163.471059 
L 391.928595 148.562824 
L 388.649256 148.562824 
L 385.369917 168.440471 
L 382.090579 168.440471 
L 378.81124 180.864 
L 375.531901 180.864 
L 372.252562 151.047529 
L 368.973223 151.047529 
L 365.693884 151.047529 
L 362.414545 151.047529 
L 359.135207 158.501647 
L 355.855868 158.501647 
L 352.576529 168.440471 
L 349.29719 168.440471 
L 346.017851 156.016941 
L 342.738512 156.016941 
L 339.459174 163.471059 
L 336.179835 163.471059 
L 332.900496 165.955765 
L 329.621157 165.955765 
L 326.341818 165.955765 
L 323.062479 165.955765 
L 319.78314 148.562824 
L 316.503802 148.562824 
L 313.224463 168.440471 
L 309.945124 168.440471 
L 306.665785 128.685176 
L 303.386446 128.685176 
L 300.107107 148.562824 
L 296.827769 148.562824 
L 293.54843 156.016941 
L 290.269091 156.016941 
L 286.989752 170.925176 
L 283.710413 170.925176 
L 280.431074 190.802824 
L 277.151736 190.802824 
L 273.872397 185.833412 
L 270.593058 185.833412 
L 267.313719 146.078118 
L 264.03438 146.078118 
L 260.755041 128.685176 
L 257.475702 128.685176 
L 254.196364 158.501647 
L 250.917025 158.501647 
L 247.637686 138.624 
L 244.358347 138.624 
L 241.079008 156.016941 
L 237.799669 156.016941 
L 234.520331 200.741647 
L 231.240992 200.741647 
L 227.961653 170.925176 
L 224.682314 170.925176 
L 221.402975 170.925176 
L 218.123636 170.925176 
L 214.844298 163.471059 
L 211.564959 163.471059 
L 208.28562 158.501647 
L 205.006281 158.501647 
L 201.726942 168.440471 
L 198.447603 168.440471 
L 195.168264 160.986353 
L 191.888926 160.986353 
L 188.609587 153.532235 
L 185.330248 153.532235 
L 182.050909 160.986353 
L 178.77157 160.986353 
L 175.492231 163.471059 
L 172.212893 163.471059 
L 168.933554 165.955765 
L 165.654215 165.955765 
L 162.374876 220.619294 
L 159.095537 220.619294 
L 155.816198 195.772235 
L 152.53686 195.772235 
L 149.257521 208.195765 
L 145.978182 208.195765 
L 142.698843 230.558118 
L 139.419504 230.558118 
L 136.140165 225.588706 
L 132.860826 225.588706 
L 129.581488 238.012235 
L 126.302149 238.012235 
L 123.02281 153.532235 
L 119.743471 153.532235 
L 116.464132 165.955765 
L 113.184793 165.955765 
L 109.905455 160.986353 
L 106.626116 160.986353 
L 103.346777 156.016941 
L 100.067438 156.016941 
L 96.788099 170.925176 
L 93.50876 170.925176 
L 90.229421 168.440471 
L 86.950083 168.440471 
L 83.670744 180.864 
L 80.391405 180.864 
L 77.112066 143.593412 
L 73.832727 143.593412 
z
" style="fill:#d62728;"/>
   </g>
   <g id="PolyCollection_5">
    <path clip-path="url(#p32ea0b59d6)" d="M 73.832727 136.139294 
L 73.832727 143.593412 
L 77.112066 143.593412 
L 80.391405 180.864 
L 83.670744 180.864 
L 86.950083 168.440471 
L 90.229421 168.440471 
L 93.50876 170.925176 
L 96.788099 170.925176 
L 100.067438 156.016941 
L 103.346777 156.016941 
L 106.626116 160.986353 
L 109.905455 160.986353 
L 113.184793 165.955765 
L 116.464132 165.955765 
L 119.743471 153.532235 
L 123.02281 153.532235 
L 126.302149 238.012235 
L 129.581488 238.012235 
L 132.860826 225.588706 
L 136.140165 225.588706 
L 139.419504 230.558118 
L 142.698843 230.558118 
L 145.978182 208.195765 
L 149.257521 208.195765 
L 152.53686 195.772235 
L 155.816198 195.772235 
L 159.095537 220.619294 
L 162.374876 220.619294 
L 165.654215 165.955765 
L 168.933554 165.955765 
L 172.212893 163.471059 
L 175.492231 163.471059 
L 178.77157 160.986353 
L 182.050909 160.986353 
L 185.330248 153.532235 
L 188.609587 153.532235 
L 191.888926 160.986353 
L 195.168264 160.986353 
L 198.447603 168.440471 
L 201.726942 168.440471 
L 205.006281 158.501647 
L 208.28562 158.501647 
L 211.564959 163.471059 
L 214.844298 163.471059 
L 218.123636 170.925176 
L 221.402975 170.925176 
L 224.682314 170.925176 
L 227.961653 170.925176 
L 231.240992 200.741647 
L 234.520331 200.741647 
L 237.799669 156.016941 
L 241.079008 156.016941 
L 244.358347 138.624 
L 247.637686 138.624 
L 250.917025 158.501647 
L 254.196364 158.501647 
L 257.475702 128.685176 
L 260.755041 128.685176 
L 264.03438 146.078118 
L 267.313719 146.078118 
L 270.593058 185.833412 
L 273.872397 185.833412 
L 277.151736 190.802824 
L 280.431074 190.802824 
L 283.710413 170.925176 
L 286.989752 170.925176 
L 290.269091 156.016941 
L 293.54843 156.016941 
L 296.827769 148.562824 
L 300.107107 148.562824 
L 303.386446 128.685176 
L 306.665785 128.685176 
L 309.945124 168.440471 
L 313.224463 168.440471 
L 316.503802 148.562824 
L 319.78314 148.562824 
L 323.062479 165.955765 
L 326.341818 165.955765 
L 329.621157 165.955765 
L 332.900496 165.955765 
L 336.179835 163.471059 
L 339.459174 163.471059 
L 342.738512 156.016941 
L 346.017851 156.016941 
L 349.29719 168.440471 
L 352.576529 168.440471 
L 355.855868 158.501647 
L 359.135207 158.501647 
L 362.414545 151.047529 
L 365.693884 151.047529 
L 368.973223 151.047529 
L 372.252562 151.047529 
L 375.531901 180.864 
L 378.81124 180.864 
L 382.090579 168.440471 
L 385.369917 168.440471 
L 388.649256 148.562824 
L 391.928595 148.562824 
L 395.207934 163.471059 
L 398.487273 163.471059 
L 398.487273 163.471059 
L 398.487273 163.471059 
L 395.207934 163.471059 
L 391.928595 148.562824 
L 388.649256 148.562824 
L 385.369917 168.440471 
L 382.090579 168.440471 
L 378.81124 180.864 
L 375.531901 180.864 
L 372.252562 151.047529 
L 368.973223 151.047529 
L 365.693884 151.047529 
L 362.414545 151.047529 
L 359.135207 158.501647 
L 355.855868 158.501647 
L 352.576529 168.440471 
L 349.29719 168.440471 
L 346.017851 156.016941 
L 342.738512 156.016941 
L 339.459174 163.471059 
L 336.179835 163.471059 
L 332.900496 165.955765 
L 329.621157 165.955765 
L 326.341818 165.955765 
L 323.062479 165.955765 
L 319.78314 148.562824 
L 316.503802 148.562824 
L 313.224463 168.440471 
L 309.945124 168.440471 
L 306.665785 128.685176 
L 303.386446 128.685176 
L 300.107107 148.562824 
L 296.827769 148.562824 
L 293.54843 156.016941 
L 290.269091 156.016941 
L 286.989752 170.925176 
L 283.710413 170.925176 
L 280.431074 190.802824 
L 277.151736 190.802824 
L 273.872397 185.833412 
L 270.593058 185.833412 
L 267.313719 146.078118 
L 264.03438 146.078118 
L 260.755041 128.685176 
L 257.475702 128.685176 
L 254.196364 151.047529 
L 250.917025 151.047529 
L 247.637686 133.654588 
L 244.358347 133.654588 
L 241.079008 151.047529 
L 237.799669 151.047529 
L 234.520331 193.287529 
L 231.240992 193.287529 
L 227.961653 165.955765 
L 224.682314 165.955765 
L 221.402975 163.471059 
L 218.123636 163.471059 
L 214.844298 158.501647 
L 211.564959 158.501647 
L 208.28562 153.532235 
L 205.006281 153.532235 
L 201.726942 165.955765 
L 198.447603 165.955765 
L 195.168264 156.016941 
L 191.888926 156.016941 
L 188.609587 146.078118 
L 185.330248 146.078118 
L 182.050909 156.016941 
L 178.77157 156.016941 
L 175.492231 156.016941 
L 172.212893 156.016941 
L 168.933554 156.016941 
L 165.654215 156.016941 
L 162.374876 213.165176 
L 159.095537 213.165176 
L 155.816198 185.833412 
L 152.53686 185.833412 
L 149.257521 200.741647 
L 145.978182 200.741647 
L 142.698843 223.104 
L 139.419504 223.104 
L 136.140165 215.649882 
L 132.860826 215.649882 
L 129.581488 230.558118 
L 126.302149 230.558118 
L 123.02281 148.562824 
L 119.743471 148.562824 
L 116.464132 158.501647 
L 113.184793 158.501647 
L 109.905455 151.047529 
L 106.626116 151.047529 
L 103.346777 143.593412 
L 100.067438 143.593412 
L 96.788099 153.532235 
L 93.50876 153.532235 
L 90.229421 153.532235 
L 86.950083 153.532235 
L 83.670744 175.894588 
L 80.391405 175.894588 
L 77.112066 136.139294 
L 73.832727 136.139294 
z
" style="fill:#9467bd;"/>
   </g>
   <g id="PolyCollection_6">
    <path clip-path="url(#p32ea0b59d6)" d="M 73.832727 83.960471 
L 73.832727 136.139294 
L 77.112066 136.139294 
L 80.391405 175.894588 
L 83.670744 175.894588 
L 86.950083 153.532235 
L 90.229421 153.532235 
L 93.50876 153.532235 
L 96.788099 153.532235 
L 100.067438 143.593412 
L 103.346777 143.593412 
L 106.626116 151.047529 
L 109.905455 151.047529 
L 113.184793 158.501647 
L 116.464132 158.501647 
L 119.743471 148.562824 
L 123.02281 148.562824 
L 126.302149 230.558118 
L 129.581488 230.558118 
L 132.860826 215.649882 
L 136.140165 215.649882 
L 139.419504 223.104 
L 142.698843 223.104 
L 145.978182 200.741647 
L 149.257521 200.741647 
L 152.53686 185.833412 
L 155.816198 185.833412 
L 159.095537 213.165176 
L 162.374876 213.165176 
L 165.654215 156.016941 
L 168.933554 156.016941 
L 172.212893 156.016941 
L 175.492231 156.016941 
L 178.77157 156.016941 
L 182.050909 156.016941 
L 185.330248 146.078118 
L 188.609587 146.078118 
L 191.888926 156.016941 
L 195.168264 156.016941 
L 198.447603 165.955765 
L 201.726942 165.955765 
L 205.006281 153.532235 
L 208.28562 153.532235 
L 211.564959 158.501647 
L 214.844298 158.501647 
L 218.123636 163.471059 
L 221.402975 163.471059 
L 224.682314 165.955765 
L 227.961653 165.955765 
L 231.240992 193.287529 
L 234.520331 193.287529 
L 237.799669 151.047529 
L 241.079008 151.047529 
L 244.358347 133.654588 
L 247.637686 133.654588 
L 250.917025 151.047529 
L 254.196364 151.047529 
L 257.475702 128.685176 
L 260.755041 128.685176 
L 264.03438 146.078118 
L 267.313719 146.078118 
L 270.593058 185.833412 
L 273.872397 185.833412 
L 277.151736 190.802824 
L 280.431074 190.802824 
L 283.710413 170.925176 
L 286.989752 170.925176 
L 290.269091 156.016941 
L 293.54843 156.016941 
L 296.827769 148.562824 
L 300.107107 148.562824 
L 303.386446 128.685176 
L 306.665785 128.685176 
L 309.945124 168.440471 
L 313.224463 168.440471 
L 316.503802 148.562824 
L 319.78314 148.562824 
L 323.062479 165.955765 
L 326.341818 165.955765 
L 329.621157 165.955765 
L 332.900496 165.955765 
L 336.179835 163.471059 
L 339.459174 163.471059 
L 342.738512 156.016941 
L 346.017851 156.016941 
L 349.29719 168.440471 
L 352.576529 168.440471 
L 355.855868 158.501647 
L 359.135207 158.501647 
L 362.414545 151.047529 
L 365.693884 151.047529 
L 368.973223 151.047529 
L 372.252562 151.047529 
L 375.531901 180.864 
L 378.81124 180.864 
L 382.090579 168.440471 
L 385.369917 168.440471 
L 388.649256 148.562824 
L 391.928595 148.562824 
L 395.207934 163.471059 
L 398.487273 163.471059 
L 398.487273 76.506353 
L 398.487273 76.506353 
L 395.207934 76.506353 
L 391.928595 78.991059 
L 388.649256 78.991059 
L 385.369917 136.139294 
L 382.090579 136.139294 
L 378.81124 106.322824 
L 375.531901 106.322824 
L 372.252562 123.715765 
L 368.973223 123.715765 
L 365.693884 136.139294 
L 362.414545 136.139294 
L 359.135207 146.078118 
L 355.855868 146.078118 
L 352.576529 138.624 
L 349.29719 138.624 
L 346.017851 133.654588 
L 342.738512 133.654588 
L 339.459174 146.078118 
L 336.179835 146.078118 
L 332.900496 146.078118 
L 329.621157 146.078118 
L 326.341818 151.047529 
L 323.062479 151.047529 
L 319.78314 123.715765 
L 316.503802 123.715765 
L 313.224463 131.169882 
L 309.945124 131.169882 
L 306.665785 108.807529 
L 303.386446 108.807529 
L 300.107107 128.685176 
L 296.827769 128.685176 
L 293.54843 123.715765 
L 290.269091 123.715765 
L 286.989752 138.624 
L 283.710413 138.624 
L 280.431074 165.955765 
L 277.151736 165.955765 
L 273.872397 141.108706 
L 270.593058 141.108706 
L 267.313719 116.261647 
L 264.03438 116.261647 
L 260.755041 103.838118 
L 257.475702 103.838118 
L 254.196364 128.685176 
L 250.917025 128.685176 
L 247.637686 118.746353 
L 244.358347 118.746353 
L 241.079008 111.292235 
L 237.799669 111.292235 
L 234.520331 153.532235 
L 231.240992 153.532235 
L 227.961653 136.139294 
L 224.682314 136.139294 
L 221.402975 138.624 
L 218.123636 138.624 
L 214.844298 143.593412 
L 211.564959 143.593412 
L 208.28562 133.654588 
L 205.006281 133.654588 
L 201.726942 136.139294 
L 198.447603 136.139294 
L 195.168264 141.108706 
L 191.888926 141.108706 
L 188.609587 126.200471 
L 185.330248 126.200471 
L 182.050909 123.715765 
L 178.77157 123.715765 
L 175.492231 136.139294 
L 172.212893 136.139294 
L 168.933554 148.562824 
L 165.654215 148.562824 
L 162.374876 121.231059 
L 159.095537 121.231059 
L 155.816198 111.292235 
L 152.53686 111.292235 
L 149.257521 131.169882 
L 145.978182 131.169882 
L 142.698843 151.047529 
L 139.419504 151.047529 
L 136.140165 156.016941 
L 132.860826 156.016941 
L 129.581488 170.925176 
L 126.302149 170.925176 
L 123.02281 126.200471 
L 119.743471 126.200471 
L 116.464132 126.200471 
L 113.184793 126.200471 
L 109.905455 106.322824 
L 106.626116 106.322824 
L 103.346777 131.169882 
L 100.067438 131.169882 
L 96.788099 133.654588 
L 93.50876 133.654588 
L 90.229421 126.200471 
L 86.950083 126.200471 
L 83.670744 121.231059 
L 80.391405 121.231059 
L 77.112066 83.960471 
L 73.832727 83.960471 
z
" style="fill:#8c564b;"/>
   </g>
   <g id="PolyCollection_7">
    <path clip-path="url(#p32ea0b59d6)" d="M 73.832727 74.021647 
L 73.832727 83.960471 
L 77.112066 83.960471 
L 80.391405 121.231059 
L 83.670744 121.231059 
L 86.950083 126.200471 
L 90.229421 126.200471 
L 93.50876 133.654588 
L 96.788099 133.654588 
L 100.067438 131.169882 
L 103.346777 131.169882 
L 106.626116 106.322824 
L 109.905455 106.322824 
L 113.184793 126.200471 
L 116.464132 126.200471 
L 119.743471 126.200471 
L 123.02281 126.200471 
L 126.302149 170.925176 
L 129.581488 170.925176 
L 132.860826 156.016941 
L 136.140165 156.016941 
L 139.419504 151.047529 
L 142.698843 151.047529 
L 145.978182 131.169882 
L 149.257521 131.169882 
L 152.53686 111.292235 
L 155.816198 111.292235 
L 159.095537 121.231059 
L 162.374876 121.231059 
L 165.654215 148.562824 
L 168.933554 148.562824 
L 172.212893 136.139294 
L 175.492231 136.139294 
L 178.77157 123.715765 
L 182.050909 123.715765 
L 185.330248 126.200471 
L 188.609587 126.200471 
L 191.888926 141.108706 
L 195.168264 141.108706 
L 198.447603 136.139294 
L 201.726942 136.139294 
L 205.006281 133.654588 
L 208.28562 133.654588 
L 211.564959 143.593412 
L 214.844298 143.593412 
L 218.123636 138.624 
L 221.402975 138.624 
L 224.682314 136.139294 
L 227.961653 136.139294 
L 231.240992 153.532235 
L 234.520331 153.532235 
L 237.799669 111.292235 
L 241.079008 111.292235 
L 244.358347 118.746353 
L 247.637686 118.746353 
L 250.917025 128.685176 
L 254.196364 128.685176 
L 257.475702 103.838118 
L 260.755041 103.838118 
L 264.03438 116.261647 
L 267.313719 116.261647 
L 270.593058 141.108706 
L 273.872397 141.108706 
L 277.151736 165.955765 
L 280.431074 165.955765 
L 283.710413 138.624 
L 286.989752 138.624 
L 290.269091 123.715765 
L 293.54843 123.715765 
L 296.827769 128.685176 
L 300.107107 128.685176 
L 303.386446 108.807529 
L 306.665785 108.807529 
L 309.945124 131.169882 
L 313.224463 131.169882 
L 316.503802 123.715765 
L 319.78314 123.715765 
L 323.062479 151.047529 
L 326.341818 151.047529 
L 329.621157 146.078118 
L 332.900496 146.078118 
L 336.179835 146.078118 
L 339.459174 146.078118 
L 342.738512 133.654588 
L 346.017851 133.654588 
L 349.29719 138.624 
L 352.576529 138.624 
L 355.855868 146.078118 
L 359.135207 146.078118 
L 362.414545 136.139294 
L 365.693884 136.139294 
L 368.973223 123.715765 
L 372.252562 123.715765 
L 375.531901 106.322824 
L 378.81124 106.322824 
L 382.090579 136.139294 
L 385.369917 136.139294 
L 388.649256 78.991059 
L 391.928595 78.991059 
L 395.207934 76.506353 
L 398.487273 76.506353 
L 398.487273 76.506353 
L 398.487273 76.506353 
L 395.207934 76.506353 
L 391.928595 78.991059 
L 388.649256 78.991059 
L 385.369917 136.139294 
L 382.090579 136.139294 
L 378.81124 106.322824 
L 375.531901 106.322824 
L 372.252562 123.715765 
L 368.973223 123.715765 
L 365.693884 136.139294 
L 362.414545 136.139294 
L 359.135207 146.078118 
L 355.855868 146.078118 
L 352.576529 138.624 
L 349.29719 138.624 
L 346.017851 133.654588 
L 342.738512 133.654588 
L 339.459174 146.078118 
L 336.179835 146.078118 
L 332.900496 146.078118 
L 329.621157 146.078118 
L 326.341818 151.047529 
L 323.062479 151.047529 
L 319.78314 123.715765 
L 316.503802 123.715765 
L 313.224463 131.169882 
L 309.945124 131.169882 
L 306.665785 108.807529 
L 303.386446 108.807529 
L 300.107107 128.685176 
L 296.827769 128.685176 
L 293.54843 123.715765 
L 290.269091 123.715765 
L 286.989752 138.624 
L 283.710413 138.624 
L 280.431074 165.955765 
L 277.151736 165.955765 
L 273.872397 141.108706 
L 270.593058 141.108706 
L 267.313719 116.261647 
L 264.03438 116.261647 
L 260.755041 98.868706 
L 257.475702 98.868706 
L 254.196364 123.715765 
L 250.917025 123.715765 
L 247.637686 113.776941 
L 244.358347 113.776941 
L 241.079008 103.838118 
L 237.799669 103.838118 
L 234.520331 148.562824 
L 231.240992 148.562824 
L 227.961653 131.169882 
L 224.682314 131.169882 
L 221.402975 133.654588 
L 218.123636 133.654588 
L 214.844298 136.139294 
L 211.564959 136.139294 
L 208.28562 128.685176 
L 205.006281 128.685176 
L 201.726942 131.169882 
L 198.447603 131.169882 
L 195.168264 136.139294 
L 191.888926 136.139294 
L 188.609587 121.231059 
L 185.330248 121.231059 
L 182.050909 116.261647 
L 178.77157 116.261647 
L 175.492231 131.169882 
L 172.212893 131.169882 
L 168.933554 141.108706 
L 165.654215 141.108706 
L 162.374876 116.261647 
L 159.095537 116.261647 
L 155.816198 103.838118 
L 152.53686 103.838118 
L 149.257521 126.200471 
L 145.978182 126.200471 
L 142.698843 143.593412 
L 139.419504 143.593412 
L 136.140165 146.078118 
L 132.860826 146.078118 
L 129.581488 163.471059 
L 126.302149 163.471059 
L 123.02281 116.261647 
L 119.743471 116.261647 
L 116.464132 113.776941 
L 113.184793 113.776941 
L 109.905455 96.384 
L 106.626116 96.384 
L 103.346777 118.746353 
L 100.067438 118.746353 
L 96.788099 118.746353 
L 93.50876 118.746353 
L 90.229421 116.261647 
L 86.950083 116.261647 
L 83.670744 113.776941 
L 80.391405 113.776941 
L 77.112066 74.021647 
L 73.832727 74.021647 
z
" style="fill:#e377c2;"/>
   </g>
   <g id="PolyCollection_8">
    <path clip-path="url(#p32ea0b59d6)" d="M 73.832727 71.536941 
L 73.832727 74.021647 
L 77.112066 74.021647 
L 80.391405 113.776941 
L 83.670744 113.776941 
L 86.950083 116.261647 
L 90.229421 116.261647 
L 93.50876 118.746353 
L 96.788099 118.746353 
L 100.067438 118.746353 
L 103.346777 118.746353 
L 106.626116 96.384 
L 109.905455 96.384 
L 113.184793 113.776941 
L 116.464132 113.776941 
L 119.743471 116.261647 
L 123.02281 116.261647 
L 126.302149 163.471059 
L 129.581488 163.471059 
L 132.860826 146.078118 
L 136.140165 146.078118 
L 139.419504 143.593412 
L 142.698843 143.593412 
L 145.978182 126.200471 
L 149.257521 126.200471 
L 152.53686 103.838118 
L 155.816198 103.838118 
L 159.095537 116.261647 
L 162.374876 116.261647 
L 165.654215 141.108706 
L 168.933554 141.108706 
L 172.212893 131.169882 
L 175.492231 131.169882 
L 178.77157 116.261647 
L 182.050909 116.261647 
L 185.330248 121.231059 
L 188.609587 121.231059 
L 191.888926 136.139294 
L 195.168264 136.139294 
L 198.447603 131.169882 
L 201.726942 131.169882 
L 205.006281 128.685176 
L 208.28562 128.685176 
L 211.564959 136.139294 
L 214.844298 136.139294 
L 218.123636 133.654588 
L 221.402975 133.654588 
L 224.682314 131.169882 
L 227.961653 131.169882 
L 231.240992 148.562824 
L 234.520331 148.562824 
L 237.799669 103.838118 
L 241.079008 103.838118 
L 244.358347 113.776941 
L 247.637686 113.776941 
L 250.917025 123.715765 
L 254.196364 123.715765 
L 257.475702 98.868706 
L 260.755041 98.868706 
L 264.03438 116.261647 
L 267.313719 116.261647 
L 270.593058 141.108706 
L 273.872397 141.108706 
L 277.151736 165.955765 
L 280.431074 165.955765 
L 283.710413 138.624 
L 286.989752 138.624 
L 290.269091 123.715765 
L 293.54843 123.715765 
L 296.827769 128.685176 
L 300.107107 128.685176 
L 303.386446 108.807529 
L 306.665785 108.807529 
L 309.945124 131.169882 
L 313.224463 131.169882 
L 316.503802 123.715765 
L 319.78314 123.715765 
L 323.062479 151.047529 
L 326.341818 151.047529 
L 329.621157 146.078118 
L 332.900496 146.078118 
L 336.179835 146.078118 
L 339.459174 146.078118 
L 342.738512 133.654588 
L 346.017851 133.654588 
L 349.29719 138.624 
L 352.576529 138.624 
L 355.855868 146.078118 
L 359.135207 146.078118 
L 362.414545 136.139294 
L 365.693884 136.139294 
L 368.973223 123.715765 
L 372.252562 123.715765 
L 375.531901 106.322824 
L 378.81124 106.322824 
L 382.090579 136.139294 
L 385.369917 136.139294 
L 388.649256 78.991059 
L 391.928595 78.991059 
L 395.207934 76.506353 
L 398.487273 76.506353 
L 398.487273 76.506353 
L 398.487273 76.506353 
L 395.207934 76.506353 
L 391.928595 78.991059 
L 388.649256 78.991059 
L 385.369917 136.139294 
L 382.090579 136.139294 
L 378.81124 106.322824 
L 375.531901 106.322824 
L 372.252562 123.715765 
L 368.973223 123.715765 
L 365.693884 136.139294 
L 362.414545 136.139294 
L 359.135207 146.078118 
L 355.855868 146.078118 
L 352.576529 138.624 
L 349.29719 138.624 
L 346.017851 133.654588 
L 342.738512 133.654588 
L 339.459174 146.078118 
L 336.179835 146.078118 
L 332.900496 146.078118 
L 329.621157 146.078118 
L 326.341818 151.047529 
L 323.062479 151.047529 
L 319.78314 123.715765 
L 316.503802 123.715765 
L 313.224463 131.169882 
L 309.945124 131.169882 
L 306.665785 108.807529 
L 303.386446 108.807529 
L 300.107107 128.685176 
L 296.827769 128.685176 
L 293.54843 123.715765 
L 290.269091 123.715765 
L 286.989752 138.624 
L 283.710413 138.624 
L 280.431074 165.955765 
L 277.151736 165.955765 
L 273.872397 141.108706 
L 270.593058 141.108706 
L 267.313719 116.261647 
L 264.03438 116.261647 
L 260.755041 98.868706 
L 257.475702 98.868706 
L 254.196364 123.715765 
L 250.917025 123.715765 
L 247.637686 113.776941 
L 244.358347 113.776941 
L 241.079008 103.838118 
L 237.799669 103.838118 
L 234.520331 148.562824 
L 231.240992 148.562824 
L 227.961653 131.169882 
L 224.682314 131.169882 
L 221.402975 128.685176 
L 218.123636 128.685176 
L 214.844298 128.685176 
L 211.564959 128.685176 
L 208.28562 123.715765 
L 205.006281 123.715765 
L 201.726942 126.200471 
L 198.447603 126.200471 
L 195.168264 131.169882 
L 191.888926 131.169882 
L 188.609587 113.776941 
L 185.330248 113.776941 
L 182.050909 111.292235 
L 178.77157 111.292235 
L 175.492231 126.200471 
L 172.212893 126.200471 
L 168.933554 133.654588 
L 165.654215 133.654588 
L 162.374876 111.292235 
L 159.095537 111.292235 
L 155.816198 96.384 
L 152.53686 96.384 
L 149.257521 116.261647 
L 145.978182 116.261647 
L 142.698843 131.169882 
L 139.419504 131.169882 
L 136.140165 136.139294 
L 132.860826 136.139294 
L 129.581488 156.016941 
L 126.302149 156.016941 
L 123.02281 111.292235 
L 119.743471 111.292235 
L 116.464132 103.838118 
L 113.184793 103.838118 
L 109.905455 88.929882 
L 106.626116 88.929882 
L 103.346777 108.807529 
L 100.067438 108.807529 
L 96.788099 106.322824 
L 93.50876 106.322824 
L 90.229421 106.322824 
L 86.950083 106.322824 
L 83.670744 101.353412 
L 80.391405 101.353412 
L 77.112066 71.536941 
L 73.832727 71.536941 
z
" style="fill:#7f7f7f;"/>
   </g>
   <g id="PolyCollection_9">
    <path clip-path="url(#p32ea0b59d6)" d="M 73.832727 69.052235 
L 73.832727 71.536941 
L 77.112066 71.536941 
L 80.391405 101.353412 
L 83.670744 101.353412 
L 86.950083 106.322824 
L 90.229421 106.322824 
L 93.50876 106.322824 
L 96.788099 106.322824 
L 100.067438 108.807529 
L 103.346777 108.807529 
L 106.626116 88.929882 
L 109.905455 88.929882 
L 113.184793 103.838118 
L 116.464132 103.838118 
L 119.743471 111.292235 
L 123.02281 111.292235 
L 126.302149 156.016941 
L 129.581488 156.016941 
L 132.860826 136.139294 
L 136.140165 136.139294 
L 139.419504 131.169882 
L 142.698843 131.169882 
L 145.978182 116.261647 
L 149.257521 116.261647 
L 152.53686 96.384 
L 155.816198 96.384 
L 159.095537 111.292235 
L 162.374876 111.292235 
L 165.654215 133.654588 
L 168.933554 133.654588 
L 172.212893 126.200471 
L 175.492231 126.200471 
L 178.77157 111.292235 
L 182.050909 111.292235 
L 185.330248 113.776941 
L 188.609587 113.776941 
L 191.888926 131.169882 
L 195.168264 131.169882 
L 198.447603 126.200471 
L 201.726942 126.200471 
L 205.006281 123.715765 
L 208.28562 123.715765 
L 211.564959 128.685176 
L 214.844298 128.685176 
L 218.123636 128.685176 
L 221.402975 128.685176 
L 224.682314 131.169882 
L 227.961653 131.169882 
L 231.240992 148.562824 
L 234.520331 148.562824 
L 237.799669 103.838118 
L 241.079008 103.838118 
L 244.358347 113.776941 
L 247.637686 113.776941 
L 250.917025 123.715765 
L 254.196364 123.715765 
L 257.475702 98.868706 
L 260.755041 98.868706 
L 264.03438 116.261647 
L 267.313719 116.261647 
L 270.593058 141.108706 
L 273.872397 141.108706 
L 277.151736 165.955765 
L 280.431074 165.955765 
L 283.710413 138.624 
L 286.989752 138.624 
L 290.269091 123.715765 
L 293.54843 123.715765 
L 296.827769 128.685176 
L 300.107107 128.685176 
L 303.386446 108.807529 
L 306.665785 108.807529 
L 309.945124 131.169882 
L 313.224463 131.169882 
L 316.503802 123.715765 
L 319.78314 123.715765 
L 323.062479 151.047529 
L 326.341818 151.047529 
L 329.621157 146.078118 
L 332.900496 146.078118 
L 336.179835 146.078118 
L 339.459174 146.078118 
L 342.738512 133.654588 
L 346.017851 133.654588 
L 349.29719 138.624 
L 352.576529 138.624 
L 355.855868 146.078118 
L 359.135207 146.078118 
L 362.414545 136.139294 
L 365.693884 136.139294 
L 368.973223 123.715765 
L 372.252562 123.715765 
L 375.531901 106.322824 
L 378.81124 106.322824 
L 382.090579 136.139294 
L 385.369917 136.139294 
L 388.649256 78.991059 
L 391.928595 78.991059 
L 395.207934 76.506353 
L 398.487273 76.506353 
L 398.487273 76.506353 
L 398.487273 76.506353 
L 395.207934 76.506353 
L 391.928595 78.991059 
L 388.649256 78.991059 
L 385.369917 136.139294 
L 382.090579 136.139294 
L 378.81124 106.322824 
L 375.531901 106.322824 
L 372.252562 123.715765 
L 368.973223 123.715765 
L 365.693884 136.139294 
L 362.414545 136.139294 
L 359.135207 146.078118 
L 355.855868 146.078118 
L 352.576529 138.624 
L 349.29719 138.624 
L 346.017851 133.654588 
L 342.738512 133.654588 
L 339.459174 146.078118 
L 336.179835 146.078118 
L 332.900496 146.078118 
L 329.621157 146.078118 
L 326.341818 151.047529 
L 323.062479 151.047529 
L 319.78314 123.715765 
L 316.503802 123.715765 
L 313.224463 131.169882 
L 309.945124 131.169882 
L 306.665785 108.807529 
L 303.386446 108.807529 
L 300.107107 128.685176 
L 296.827769 128.685176 
L 293.54843 123.715765 
L 290.269091 123.715765 
L 286.989752 138.624 
L 283.710413 138.624 
L 280.431074 165.955765 
L 277.151736 165.955765 
L 273.872397 141.108706 
L 270.593058 141.108706 
L 267.313719 116.261647 
L 264.03438 116.261647 
L 260.755041 98.868706 
L 257.475702 98.868706 
L 254.196364 123.715765 
L 250.917025 123.715765 
L 247.637686 113.776941 
L 244.358347 113.776941 
L 241.079008 103.838118 
L 237.799669 103.838118 
L 234.520331 148.562824 
L 231.240992 148.562824 
L 227.961653 131.169882 
L 224.682314 131.169882 
L 221.402975 128.685176 
L 218.123636 128.685176 
L 214.844298 121.231059 
L 211.564959 121.231059 
L 208.28562 118.746353 
L 205.006281 118.746353 
L 201.726942 121.231059 
L 198.447603 121.231059 
L 195.168264 126.200471 
L 191.888926 126.200471 
L 188.609587 106.322824 
L 185.330248 106.322824 
L 182.050909 106.322824 
L 178.77157 106.322824 
L 175.492231 118.746353 
L 172.212893 118.746353 
L 168.933554 128.685176 
L 165.654215 128.685176 
L 162.374876 103.838118 
L 159.095537 103.838118 
L 155.816198 91.414588 
L 152.53686 91.414588 
L 149.257521 108.807529 
L 145.978182 108.807529 
L 142.698843 126.200471 
L 139.419504 126.200471 
L 136.140165 131.169882 
L 132.860826 131.169882 
L 129.581488 148.562824 
L 126.302149 148.562824 
L 123.02281 106.322824 
L 119.743471 106.322824 
L 116.464132 96.384 
L 113.184793 96.384 
L 109.905455 83.960471 
L 106.626116 83.960471 
L 103.346777 101.353412 
L 100.067438 101.353412 
L 96.788099 93.899294 
L 93.50876 93.899294 
L 90.229421 93.899294 
L 86.950083 93.899294 
L 83.670744 88.929882 
L 80.391405 88.929882 
L 77.112066 69.052235 
L 73.832727 69.052235 
z
" style="fill:#bcbd22;"/>
   </g>
   <g id="PolyCollection_10">
    <path clip-path="url(#p32ea0b59d6)" d="M 73.832727 66.567529 
L 73.832727 69.052235 
L 77.112066 69.052235 
L 80.391405 88.929882 
L 83.670744 88.929882 
L 86.950083 93.899294 
L 90.229421 93.899294 
L 93.50876 93.899294 
L 96.788099 93.899294 
L 100.067438 101.353412 
L 103.346777 101.353412 
L 106.626116 83.960471 
L 109.905455 83.960471 
L 113.184793 96.384 
L 116.464132 96.384 
L 119.743471 106.322824 
L 123.02281 106.322824 
L 126.302149 148.562824 
L 129.581488 148.562824 
L 132.860826 131.169882 
L 136.140165 131.169882 
L 139.419504 126.200471 
L 142.698843 126.200471 
L 145.978182 108.807529 
L 149.257521 108.807529 
L 152.53686 91.414588 
L 155.816198 91.414588 
L 159.095537 103.838118 
L 162.374876 103.838118 
L 165.654215 128.685176 
L 168.933554 128.685176 
L 172.212893 118.746353 
L 175.492231 118.746353 
L 178.77157 106.322824 
L 182.050909 106.322824 
L 185.330248 106.322824 
L 188.609587 106.322824 
L 191.888926 126.200471 
L 195.168264 126.200471 
L 198.447603 121.231059 
L 201.726942 121.231059 
L 205.006281 118.746353 
L 208.28562 118.746353 
L 211.564959 121.231059 
L 214.844298 121.231059 
L 218.123636 128.685176 
L 221.402975 128.685176 
L 224.682314 131.169882 
L 227.961653 131.169882 
L 231.240992 148.562824 
L 234.520331 148.562824 
L 237.799669 103.838118 
L 241.079008 103.838118 
L 244.358347 113.776941 
L 247.637686 113.776941 
L 250.917025 123.715765 
L 254.196364 123.715765 
L 257.475702 98.868706 
L 260.755041 98.868706 
L 264.03438 116.261647 
L 267.313719 116.261647 
L 270.593058 141.108706 
L 273.872397 141.108706 
L 277.151736 165.955765 
L 280.431074 165.955765 
L 283.710413 138.624 
L 286.989752 138.624 
L 290.269091 123.715765 
L 293.54843 123.715765 
L 296.827769 128.685176 
L 300.107107 128.685176 
L 303.386446 108.807529 
L 306.665785 108.807529 
L 309.945124 131.169882 
L 313.224463 131.169882 
L 316.503802 123.715765 
L 319.78314 123.715765 
L 323.062479 151.047529 
L 326.341818 151.047529 
L 329.621157 146.078118 
L 332.900496 146.078118 
L 336.179835 146.078118 
L 339.459174 146.078118 
L 342.738512 133.654588 
L 346.017851 133.654588 
L 349.29719 138.624 
L 352.576529 138.624 
L 355.855868 146.078118 
L 359.135207 146.078118 
L 362.414545 136.139294 
L 365.693884 136.139294 
L 368.973223 123.715765 
L 372.252562 123.715765 
L 375.531901 106.322824 
L 378.81124 106.322824 
L 382.090579 136.139294 
L 385.369917 136.139294 
L 388.649256 78.991059 
L 391.928595 78.991059 
L 395.207934 76.506353 
L 398.487273 76.506353 
L 398.487273 76.506353 
L 398.487273 76.506353 
L 395.207934 76.506353 
L 391.928595 78.991059 
L 388.649256 78.991059 
L 385.369917 131.169882 
L 382.090579 131.169882 
L 378.81124 103.838118 
L 375.531901 103.838118 
L 372.252562 116.261647 
L 368.973223 116.261647 
L 365.693884 131.169882 
L 362.414545 131.169882 
L 359.135207 141.108706 
L 355.855868 141.108706 
L 352.576529 131.169882 
L 349.29719 131.169882 
L 346.017851 128.685176 
L 342.738512 128.685176 
L 339.459174 141.108706 
L 336.179835 141.108706 
L 332.900496 138.624 
L 329.621157 138.624 
L 326.341818 146.078118 
L 323.062479 146.078118 
L 319.78314 118.746353 
L 316.503802 118.746353 
L 313.224463 126.200471 
L 309.945124 126.200471 
L 306.665785 101.353412 
L 303.386446 101.353412 
L 300.107107 123.715765 
L 296.827769 123.715765 
L 293.54843 118.746353 
L 290.269091 118.746353 
L 286.989752 133.654588 
L 283.710413 133.654588 
L 280.431074 160.986353 
L 277.151736 160.986353 
L 273.872397 136.139294 
L 270.593058 136.139294 
L 267.313719 111.292235 
L 264.03438 111.292235 
L 260.755041 93.899294 
L 257.475702 93.899294 
L 254.196364 118.746353 
L 250.917025 118.746353 
L 247.637686 108.807529 
L 244.358347 108.807529 
L 241.079008 98.868706 
L 237.799669 98.868706 
L 234.520331 143.593412 
L 231.240992 143.593412 
L 227.961653 126.200471 
L 224.682314 126.200471 
L 221.402975 123.715765 
L 218.123636 123.715765 
L 214.844298 116.261647 
L 211.564959 116.261647 
L 208.28562 113.776941 
L 205.006281 113.776941 
L 201.726942 113.776941 
L 198.447603 113.776941 
L 195.168264 121.231059 
L 191.888926 121.231059 
L 188.609587 98.868706 
L 185.330248 98.868706 
L 182.050909 101.353412 
L 178.77157 101.353412 
L 175.492231 113.776941 
L 172.212893 113.776941 
L 168.933554 123.715765 
L 165.654215 123.715765 
L 162.374876 96.384 
L 159.095537 96.384 
L 155.816198 86.445176 
L 152.53686 86.445176 
L 149.257521 103.838118 
L 145.978182 103.838118 
L 142.698843 121.231059 
L 139.419504 121.231059 
L 136.140165 123.715765 
L 132.860826 123.715765 
L 129.581488 143.593412 
L 126.302149 143.593412 
L 123.02281 103.838118 
L 119.743471 103.838118 
L 116.464132 83.960471 
L 113.184793 83.960471 
L 109.905455 76.506353 
L 106.626116 76.506353 
L 103.346777 91.414588 
L 100.067438 91.414588 
L 96.788099 83.960471 
L 93.50876 83.960471 
L 90.229421 78.991059 
L 86.950083 78.991059 
L 83.670744 76.506353 
L 80.391405 76.506353 
L 77.112066 66.567529 
L 73.832727 66.567529 
z
" style="fill:#17becf;"/>
   </g>
   <g id="PolyCollection_11">
    <path clip-path="url(#p32ea0b59d6)" d="M 73.832727 61.598118 
L 73.832727 66.567529 
L 77.112066 66.567529 
L 80.391405 76.506353 
L 83.670744 76.506353 
L 86.950083 78.991059 
L 90.229421 78.991059 
L 93.50876 83.960471 
L 96.788099 83.960471 
L 100.067438 91.414588 
L 103.346777 91.414588 
L 106.626116 76.506353 
L 109.905455 76.506353 
L 113.184793 83.960471 
L 116.464132 83.960471 
L 119.743471 103.838118 
L 123.02281 103.838118 
L 126.302149 143.593412 
L 129.581488 143.593412 
L 132.860826 123.715765 
L 136.140165 123.715765 
L 139.419504 121.231059 
L 142.698843 121.231059 
L 145.978182 103.838118 
L 149.257521 103.838118 
L 152.53686 86.445176 
L 155.816198 86.445176 
L 159.095537 96.384 
L 162.374876 96.384 
L 165.654215 123.715765 
L 168.933554 123.715765 
L 172.212893 113.776941 
L 175.492231 113.776941 
L 178.77157 101.353412 
L 182.050909 101.353412 
L 185.330248 98.868706 
L 188.609587 98.868706 
L 191.888926 121.231059 
L 195.168264 121.231059 
L 198.447603 113.776941 
L 201.726942 113.776941 
L 205.006281 113.776941 
L 208.28562 113.776941 
L 211.564959 116.261647 
L 214.844298 116.261647 
L 218.123636 123.715765 
L 221.402975 123.715765 
L 224.682314 126.200471 
L 227.961653 126.200471 
L 231.240992 143.593412 
L 234.520331 143.593412 
L 237.799669 98.868706 
L 241.079008 98.868706 
L 244.358347 108.807529 
L 247.637686 108.807529 
L 250.917025 118.746353 
L 254.196364 118.746353 
L 257.475702 93.899294 
L 260.755041 93.899294 
L 264.03438 111.292235 
L 267.313719 111.292235 
L 270.593058 136.139294 
L 273.872397 136.139294 
L 277.151736 160.986353 
L 280.431074 160.986353 
L 283.710413 133.654588 
L 286.989752 133.654588 
L 290.269091 118.746353 
L 293.54843 118.746353 
L 296.827769 123.715765 
L 300.107107 123.715765 
L 303.386446 101.353412 
L 306.665785 101.353412 
L 309.945124 126.200471 
L 313.224463 126.200471 
L 316.503802 118.746353 
L 319.78314 118.746353 
L 323.062479 146.078118 
L 326.341818 146.078118 
L 329.621157 138.624 
L 332.900496 138.624 
L 336.179835 141.108706 
L 339.459174 141.108706 
L 342.738512 128.685176 
L 346.017851 128.685176 
L 349.29719 131.169882 
L 352.576529 131.169882 
L 355.855868 141.108706 
L 359.135207 141.108706 
L 362.414545 131.169882 
L 365.693884 131.169882 
L 368.973223 116.261647 
L 372.252562 116.261647 
L 375.531901 103.838118 
L 378.81124 103.838118 
L 382.090579 131.169882 
L 385.369917 131.169882 
L 388.649256 78.991059 
L 391.928595 78.991059 
L 395.207934 76.506353 
L 398.487273 76.506353 
L 398.487273 76.506353 
L 398.487273 76.506353 
L 395.207934 76.506353 
L 391.928595 78.991059 
L 388.649256 78.991059 
L 385.369917 131.169882 
L 382.090579 131.169882 
L 378.81124 103.838118 
L 375.531901 103.838118 
L 372.252562 116.261647 
L 368.973223 116.261647 
L 365.693884 131.169882 
L 362.414545 131.169882 
L 359.135207 86.445176 
L 355.855868 86.445176 
L 352.576529 76.506353 
L 349.29719 76.506353 
L 346.017851 76.506353 
L 342.738512 76.506353 
L 339.459174 91.414588 
L 336.179835 91.414588 
L 332.900496 81.475765 
L 329.621157 81.475765 
L 326.341818 96.384 
L 323.062479 96.384 
L 319.78314 74.021647 
L 316.503802 74.021647 
L 313.224463 66.567529 
L 309.945124 66.567529 
L 306.665785 76.506353 
L 303.386446 76.506353 
L 300.107107 69.052235 
L 296.827769 69.052235 
L 293.54843 66.567529 
L 290.269091 66.567529 
L 286.989752 81.475765 
L 283.710413 81.475765 
L 280.431074 71.536941 
L 277.151736 71.536941 
L 273.872397 61.598118 
L 270.593058 61.598118 
L 267.313719 61.598118 
L 264.03438 61.598118 
L 260.755041 56.628706 
L 257.475702 56.628706 
L 254.196364 54.144 
L 250.917025 54.144 
L 247.637686 59.113412 
L 244.358347 59.113412 
L 241.079008 59.113412 
L 237.799669 59.113412 
L 234.520331 61.598118 
L 231.240992 61.598118 
L 227.961653 64.082824 
L 224.682314 64.082824 
L 221.402975 69.052235 
L 218.123636 69.052235 
L 214.844298 64.082824 
L 211.564959 64.082824 
L 208.28562 61.598118 
L 205.006281 61.598118 
L 201.726942 59.113412 
L 198.447603 59.113412 
L 195.168264 64.082824 
L 191.888926 64.082824 
L 188.609587 59.113412 
L 185.330248 59.113412 
L 182.050909 64.082824 
L 178.77157 64.082824 
L 175.492231 61.598118 
L 172.212893 61.598118 
L 168.933554 61.598118 
L 165.654215 61.598118 
L 162.374876 61.598118 
L 159.095537 61.598118 
L 155.816198 64.082824 
L 152.53686 64.082824 
L 149.257521 66.567529 
L 145.978182 66.567529 
L 142.698843 66.567529 
L 139.419504 66.567529 
L 136.140165 61.598118 
L 132.860826 61.598118 
L 129.581488 64.082824 
L 126.302149 64.082824 
L 123.02281 69.052235 
L 119.743471 69.052235 
L 116.464132 69.052235 
L 113.184793 69.052235 
L 109.905455 71.536941 
L 106.626116 71.536941 
L 103.346777 78.991059 
L 100.067438 78.991059 
L 96.788099 74.021647 
L 93.50876 74.021647 
L 90.229421 69.052235 
L 86.950083 69.052235 
L 83.670744 71.536941 
L 80.391405 71.536941 
L 77.112066 61.598118 
L 73.832727 61.598118 
z
" style="fill:#1f77b4;"/>
   </g>
   <g id="PolyCollection_12">
    <path clip-path="url(#p32ea0b59d6)" d="M 73.832727 59.113412 
L 73.832727 61.598118 
L 77.112066 61.598118 
L 80.391405 71.536941 
L 83.670744 71.536941 
L 86.950083 69.052235 
L 90.229421 69.052235 
L 93.50876 74.021647 
L 96.788099 74.021647 
L 100.067438 78.991059 
L 103.346777 78.991059 
L 106.626116 71.536941 
L 109.905455 71.536941 
L 113.184793 69.052235 
L 116.464132 69.052235 
L 119.743471 69.052235 
L 123.02281 69.052235 
L 126.302149 64.082824 
L 129.581488 64.082824 
L 132.860826 61.598118 
L 136.140165 61.598118 
L 139.419504 66.567529 
L 142.698843 66.567529 
L 145.978182 66.567529 
L 149.257521 66.567529 
L 152.53686 64.082824 
L 155.816198 64.082824 
L 159.095537 61.598118 
L 162.374876 61.598118 
L 165.654215 61.598118 
L 168.933554 61.598118 
L 172.212893 61.598118 
L 175.492231 61.598118 
L 178.77157 64.082824 
L 182.050909 64.082824 
L 185.330248 59.113412 
L 188.609587 59.113412 
L 191.888926 64.082824 
L 195.168264 64.082824 
L 198.447603 59.113412 
L 201.726942 59.113412 
L 205.006281 61.598118 
L 208.28562 61.598118 
L 211.564959 64.082824 
L 214.844298 64.082824 
L 218.123636 69.052235 
L 221.402975 69.052235 
L 224.682314 64.082824 
L 227.961653 64.082824 
L 231.240992 61.598118 
L 234.520331 61.598118 
L 237.799669 59.113412 
L 241.079008 59.113412 
L 244.358347 59.113412 
L 247.637686 59.113412 
L 250.917025 54.144 
L 254.196364 54.144 
L 257.475702 56.628706 
L 260.755041 56.628706 
L 264.03438 61.598118 
L 267.313719 61.598118 
L 270.593058 61.598118 
L 273.872397 61.598118 
L 277.151736 71.536941 
L 280.431074 71.536941 
L 283.710413 81.475765 
L 286.989752 81.475765 
L 290.269091 66.567529 
L 293.54843 66.567529 
L 296.827769 69.052235 
L 300.107107 69.052235 
L 303.386446 76.506353 
L 306.665785 76.506353 
L 309.945124 66.567529 
L 313.224463 66.567529 
L 316.503802 74.021647 
L 319.78314 74.021647 
L 323.062479 96.384 
L 326.341818 96.384 
L 329.621157 81.475765 
L 332.900496 81.475765 
L 336.179835 91.414588 
L 339.459174 91.414588 
L 342.738512 76.506353 
L 346.017851 76.506353 
L 349.29719 76.506353 
L 352.576529 76.506353 
L 355.855868 86.445176 
L 359.135207 86.445176 
L 362.414545 131.169882 
L 365.693884 131.169882 
L 368.973223 116.261647 
L 372.252562 116.261647 
L 375.531901 103.838118 
L 378.81124 103.838118 
L 382.090579 131.169882 
L 385.369917 131.169882 
L 388.649256 78.991059 
L 391.928595 78.991059 
L 395.207934 76.506353 
L 398.487273 76.506353 
L 398.487273 76.506353 
L 398.487273 76.506353 
L 395.207934 76.506353 
L 391.928595 78.991059 
L 388.649256 78.991059 
L 385.369917 131.169882 
L 382.090579 131.169882 
L 378.81124 103.838118 
L 375.531901 103.838118 
L 372.252562 116.261647 
L 368.973223 116.261647 
L 365.693884 131.169882 
L 362.414545 131.169882 
L 359.135207 86.445176 
L 355.855868 86.445176 
L 352.576529 76.506353 
L 349.29719 76.506353 
L 346.017851 76.506353 
L 342.738512 76.506353 
L 339.459174 91.414588 
L 336.179835 91.414588 
L 332.900496 81.475765 
L 329.621157 81.475765 
L 326.341818 96.384 
L 323.062479 96.384 
L 319.78314 74.021647 
L 316.503802 74.021647 
L 313.224463 66.567529 
L 309.945124 66.567529 
L 306.665785 76.506353 
L 303.386446 76.506353 
L 300.107107 69.052235 
L 296.827769 69.052235 
L 293.54843 66.567529 
L 290.269091 66.567529 
L 286.989752 81.475765 
L 283.710413 81.475765 
L 280.431074 71.536941 
L 277.151736 71.536941 
L 273.872397 61.598118 
L 270.593058 61.598118 
L 267.313719 61.598118 
L 264.03438 61.598118 
L 260.755041 56.628706 
L 257.475702 56.628706 
L 254.196364 54.144 
L 250.917025 54.144 
L 247.637686 59.113412 
L 244.358347 59.113412 
L 241.079008 59.113412 
L 237.799669 59.113412 
L 234.520331 61.598118 
L 231.240992 61.598118 
L 227.961653 64.082824 
L 224.682314 64.082824 
L 221.402975 59.113412 
L 218.123636 59.113412 
L 214.844298 56.628706 
L 211.564959 56.628706 
L 208.28562 56.628706 
L 205.006281 56.628706 
L 201.726942 54.144 
L 198.447603 54.144 
L 195.168264 56.628706 
L 191.888926 56.628706 
L 188.609587 54.144 
L 185.330248 54.144 
L 182.050909 56.628706 
L 178.77157 56.628706 
L 175.492231 56.628706 
L 172.212893 56.628706 
L 168.933554 56.628706 
L 165.654215 56.628706 
L 162.374876 56.628706 
L 159.095537 56.628706 
L 155.816198 56.628706 
L 152.53686 56.628706 
L 149.257521 61.598118 
L 145.978182 61.598118 
L 142.698843 59.113412 
L 139.419504 59.113412 
L 136.140165 56.628706 
L 132.860826 56.628706 
L 129.581488 59.113412 
L 126.302149 59.113412 
L 123.02281 61.598118 
L 119.743471 61.598118 
L 116.464132 59.113412 
L 113.184793 59.113412 
L 109.905455 59.113412 
L 106.626116 59.113412 
L 103.346777 56.628706 
L 100.067438 56.628706 
L 96.788099 54.144 
L 93.50876 54.144 
L 90.229421 54.144 
L 86.950083 54.144 
L 83.670744 61.598118 
L 80.391405 61.598118 
L 77.112066 59.113412 
L 73.832727 59.113412 
z
" style="fill:#ff7f0e;"/>
   </g>
   <g id="PolyCollection_13">
    <path clip-path="url(#p32ea0b59d6)" d="M 73.832727 59.113412 
L 73.832727 59.113412 
L 77.112066 59.113412 
L 80.391405 61.598118 
L 83.670744 61.598118 
L 86.950083 54.144 
L 90.229421 54.144 
L 93.50876 54.144 
L 96.788099 54.144 
L 100.067438 56.628706 
L 103.346777 56.628706 
L 106.626116 59.113412 
L 109.905455 59.113412 
L 113.184793 59.113412 
L 116.464132 59.113412 
L 119.743471 61.598118 
L 123.02281 61.598118 
L 126.302149 59.113412 
L 129.581488 59.113412 
L 132.860826 56.628706 
L 136.140165 56.628706 
L 139.419504 59.113412 
L 142.698843 59.113412 
L 145.978182 61.598118 
L 149.257521 61.598118 
L 152.53686 56.628706 
L 155.816198 56.628706 
L 159.095537 56.628706 
L 162.374876 56.628706 
L 165.654215 56.628706 
L 168.933554 56.628706 
L 172.212893 56.628706 
L 175.492231 56.628706 
L 178.77157 56.628706 
L 182.050909 56.628706 
L 185.330248 54.144 
L 188.609587 54.144 
L 191.888926 56.628706 
L 195.168264 56.628706 
L 198.447603 54.144 
L 201.726942 54.144 
L 205.006281 56.628706 
L 208.28562 56.628706 
L 211.564959 56.628706 
L 214.844298 56.628706 
L 218.123636 59.113412 
L 221.402975 59.113412 
L 224.682314 64.082824 
L 227.961653 64.082824 
L 231.240992 61.598118 
L 234.520331 61.598118 
L 237.799669 59.113412 
L 241.079008 59.113412 
L 244.358347 59.113412 
L 247.637686 59.113412 
L 250.917025 54.144 
L 254.196364 54.144 
L 257.475702 56.628706 
L 260.755041 56.628706 
L 264.03438 61.598118 
L 267.313719 61.598118 
L 270.593058 61.598118 
L 273.872397 61.598118 
L 277.151736 71.536941 
L 280.431074 71.536941 
L 283.710413 81.475765 
L 286.989752 81.475765 
L 290.269091 66.567529 
L 293.54843 66.567529 
L 296.827769 69.052235 
L 300.107107 69.052235 
L 303.386446 76.506353 
L 306.665785 76.506353 
L 309.945124 66.567529 
L 313.224463 66.567529 
L 316.503802 74.021647 
L 319.78314 74.021647 
L 323.062479 96.384 
L 326.341818 96.384 
L 329.621157 81.475765 
L 332.900496 81.475765 
L 336.179835 91.414588 
L 339.459174 91.414588 
L 342.738512 76.506353 
L 346.017851 76.506353 
L 349.29719 76.506353 
L 352.576529 76.506353 
L 355.855868 86.445176 
L 359.135207 86.445176 
L 362.414545 131.169882 
L 365.693884 131.169882 
L 368.973223 116.261647 
L 372.252562 116.261647 
L 375.531901 103.838118 
L 378.81124 103.838118 
L 382.090579 131.169882 
L 385.369917 131.169882 
L 388.649256 78.991059 
L 391.928595 78.991059 
L 395.207934 76.506353 
L 398.487273 76.506353 
L 398.487273 61.598118 
L 398.487273 61.598118 
L 395.207934 61.598118 
L 391.928595 56.628706 
L 388.649256 56.628706 
L 385.369917 56.628706 
L 382.090579 56.628706 
L 378.81124 59.113412 
L 375.531901 59.113412 
L 372.252562 56.628706 
L 368.973223 56.628706 
L 365.693884 61.598118 
L 362.414545 61.598118 
L 359.135207 61.598118 
L 355.855868 61.598118 
L 352.576529 56.628706 
L 349.29719 56.628706 
L 346.017851 56.628706 
L 342.738512 56.628706 
L 339.459174 54.144 
L 336.179835 54.144 
L 332.900496 56.628706 
L 329.621157 56.628706 
L 326.341818 56.628706 
L 323.062479 56.628706 
L 319.78314 59.113412 
L 316.503802 59.113412 
L 313.224463 59.113412 
L 309.945124 59.113412 
L 306.665785 59.113412 
L 303.386446 59.113412 
L 300.107107 59.113412 
L 296.827769 59.113412 
L 293.54843 59.113412 
L 290.269091 59.113412 
L 286.989752 59.113412 
L 283.710413 59.113412 
L 280.431074 56.628706 
L 277.151736 56.628706 
L 273.872397 59.113412 
L 270.593058 59.113412 
L 267.313719 61.598118 
L 264.03438 61.598118 
L 260.755041 56.628706 
L 257.475702 56.628706 
L 254.196364 54.144 
L 250.917025 54.144 
L 247.637686 59.113412 
L 244.358347 59.113412 
L 241.079008 59.113412 
L 237.799669 59.113412 
L 234.520331 61.598118 
L 231.240992 61.598118 
L 227.961653 64.082824 
L 224.682314 64.082824 
L 221.402975 59.113412 
L 218.123636 59.113412 
L 214.844298 56.628706 
L 211.564959 56.628706 
L 208.28562 56.628706 
L 205.006281 56.628706 
L 201.726942 54.144 
L 198.447603 54.144 
L 195.168264 56.628706 
L 191.888926 56.628706 
L 188.609587 54.144 
L 185.330248 54.144 
L 182.050909 56.628706 
L 178.77157 56.628706 
L 175.492231 56.628706 
L 172.212893 56.628706 
L 168.933554 56.628706 
L 165.654215 56.628706 
L 162.374876 56.628706 
L 159.095537 56.628706 
L 155.816198 56.628706 
L 152.53686 56.628706 
L 149.257521 61.598118 
L 145.978182 61.598118 
L 142.698843 59.113412 
L 139.419504 59.113412 
L 136.140165 56.628706 
L 132.860826 56.628706 
L 129.581488 59.113412 
L 126.302149 59.113412 
L 123.02281 61.598118 
L 119.743471 61.598118 
L 116.464132 59.113412 
L 113.184793 59.113412 
L 109.905455 59.113412 
L 106.626116 59.113412 
L 103.346777 56.628706 
L 100.067438 56.628706 
L 96.788099 54.144 
L 93.50876 54.144 
L 90.229421 54.144 
L 86.950083 54.144 
L 83.670744 61.598118 
L 80.391405 61.598118 
L 77.112066 59.113412 
L 73.832727 59.113412 
z
" style="fill:#2ca02c;"/>
   </g>
   <g id="matplotlib.axis_1">
    <g id="xtick_1">
     <g id="line2d_1">
      <defs>
       <path d="M 0 0 
L 0 3.5 
" id="mcdb109e035" style="stroke:#000000;stroke-width:0.8;"/>
      </defs>
      <g>
       <use style="stroke:#000000;stroke-width:0.8;" x="73.832727" xlink:href="#mcdb109e035" y="307.584"/>
      </g>
     </g>
     <g id="text_1">
      <!-- 0 -->
      <defs>
       <path d="M 31.78125 66.40625 
Q 24.171875 66.40625 20.328125 58.90625 
Q 16.5 51.421875 16.5 36.375 
Q 16.5 21.390625 20.328125 13.890625 
Q 24.171875 6.390625 31.78125 6.390625 
Q 39.453125 6.390625 43.28125 13.890625 
Q 47.125 21.390625 47.125 36.375 
Q 47.125 51.421875 43.28125 58.90625 
Q 39.453125 66.40625 31.78125 66.40625 
z
M 31.78125 74.21875 
Q 44.046875 74.21875 50.515625 64.515625 
Q 56.984375 54.828125 56.984375 36.375 
Q 56.984375 17.96875 50.515625 8.265625 
Q 44.046875 -1.421875 31.78125 -1.421875 
Q 19.53125 -1.421875 13.0625 8.265625 
Q 6.59375 17.96875 6.59375 36.375 
Q 6.59375 54.828125 13.0625 64.515625 
Q 19.53125 74.21875 31.78125 74.21875 
z
" id="DejaVuSans-48"/>
      </defs>
      <g transform="translate(70.651477 322.182437)scale(0.1 -0.1)">
       <use xlink:href="#DejaVuSans-48"/>
      </g>
     </g>
    </g>
    <g id="xtick_2">
     <g id="line2d_2">
      <g>
       <use style="stroke:#000000;stroke-width:0.8;" x="139.419504" xlink:href="#mcdb109e035" y="307.584"/>
      </g>
     </g>
     <g id="text_2">
      <!-- 20 -->
      <defs>
       <path d="M 19.1875 8.296875 
L 53.609375 8.296875 
L 53.609375 0 
L 7.328125 0 
L 7.328125 8.296875 
Q 12.9375 14.109375 22.625 23.890625 
Q 32.328125 33.6875 34.8125 36.53125 
Q 39.546875 41.84375 41.421875 45.53125 
Q 43.3125 49.21875 43.3125 52.78125 
Q 43.3125 58.59375 39.234375 62.25 
Q 35.15625 65.921875 28.609375 65.921875 
Q 23.96875 65.921875 18.8125 64.3125 
Q 13.671875 62.703125 7.8125 59.421875 
L 7.8125 69.390625 
Q 13.765625 71.78125 18.9375 73 
Q 24.125 74.21875 28.421875 74.21875 
Q 39.75 74.21875 46.484375 68.546875 
Q 53.21875 62.890625 53.21875 53.421875 
Q 53.21875 48.921875 51.53125 44.890625 
Q 49.859375 40.875 45.40625 35.40625 
Q 44.1875 33.984375 37.640625 27.21875 
Q 31.109375 20.453125 19.1875 8.296875 
z
" id="DejaVuSans-50"/>
      </defs>
      <g transform="translate(133.057004 322.182437)scale(0.1 -0.1)">
       <use xlink:href="#DejaVuSans-50"/>
       <use x="63.623047" xlink:href="#DejaVuSans-48"/>
      </g>
     </g>
    </g>
    <g id="xtick_3">
     <g id="line2d_3">
      <g>
       <use style="stroke:#000000;stroke-width:0.8;" x="205.006281" xlink:href="#mcdb109e035" y="307.584"/>
      </g>
     </g>
     <g id="text_3">
      <!-- 40 -->
      <defs>
       <path d="M 37.796875 64.3125 
L 12.890625 25.390625 
L 37.796875 25.390625 
z
M 35.203125 72.90625 
L 47.609375 72.90625 
L 47.609375 25.390625 
L 58.015625 25.390625 
L 58.015625 17.1875 
L 47.609375 17.1875 
L 47.609375 0 
L 37.796875 0 
L 37.796875 17.1875 
L 4.890625 17.1875 
L 4.890625 26.703125 
z
" id="DejaVuSans-52"/>
      </defs>
      <g transform="translate(198.643781 322.182437)scale(0.1 -0.1)">
       <use xlink:href="#DejaVuSans-52"/>
       <use x="63.623047" xlink:href="#DejaVuSans-48"/>
      </g>
     </g>
    </g>
    <g id="xtick_4">
     <g id="line2d_4">
      <g>
       <use style="stroke:#000000;stroke-width:0.8;" x="270.593058" xlink:href="#mcdb109e035" y="307.584"/>
      </g>
     </g>
     <g id="text_4">
      <!-- 60 -->
      <defs>
       <path d="M 33.015625 40.375 
Q 26.375 40.375 22.484375 35.828125 
Q 18.609375 31.296875 18.609375 23.390625 
Q 18.609375 15.53125 22.484375 10.953125 
Q 26.375 6.390625 33.015625 6.390625 
Q 39.65625 6.390625 43.53125 10.953125 
Q 47.40625 15.53125 47.40625 23.390625 
Q 47.40625 31.296875 43.53125 35.828125 
Q 39.65625 40.375 33.015625 40.375 
z
M 52.59375 71.296875 
L 52.59375 62.3125 
Q 48.875 64.0625 45.09375 64.984375 
Q 41.3125 65.921875 37.59375 65.921875 
Q 27.828125 65.921875 22.671875 59.328125 
Q 17.53125 52.734375 16.796875 39.40625 
Q 19.671875 43.65625 24.015625 45.921875 
Q 28.375 48.1875 33.59375 48.1875 
Q 44.578125 48.1875 50.953125 41.515625 
Q 57.328125 34.859375 57.328125 23.390625 
Q 57.328125 12.15625 50.6875 5.359375 
Q 44.046875 -1.421875 33.015625 -1.421875 
Q 20.359375 -1.421875 13.671875 8.265625 
Q 6.984375 17.96875 6.984375 36.375 
Q 6.984375 53.65625 15.1875 63.9375 
Q 23.390625 74.21875 37.203125 74.21875 
Q 40.921875 74.21875 44.703125 73.484375 
Q 48.484375 72.75 52.59375 71.296875 
z
" id="DejaVuSans-54"/>
      </defs>
      <g transform="translate(264.230558 322.182437)scale(0.1 -0.1)">
       <use xlink:href="#DejaVuSans-54"/>
       <use x="63.623047" xlink:href="#DejaVuSans-48"/>
      </g>
     </g>
    </g>
    <g id="xtick_5">
     <g id="line2d_5">
      <g>
       <use style="stroke:#000000;stroke-width:0.8;" x="336.179835" xlink:href="#mcdb109e035" y="307.584"/>
      </g>
     </g>
     <g id="text_5">
      <!-- 80 -->
      <defs>
       <path d="M 31.78125 34.625 
Q 24.75 34.625 20.71875 30.859375 
Q 16.703125 27.09375 16.703125 20.515625 
Q 16.703125 13.921875 20.71875 10.15625 
Q 24.75 6.390625 31.78125 6.390625 
Q 38.8125 6.390625 42.859375 10.171875 
Q 46.921875 13.96875 46.921875 20.515625 
Q 46.921875 27.09375 42.890625 30.859375 
Q 38.875 34.625 31.78125 34.625 
z
M 21.921875 38.8125 
Q 15.578125 40.375 12.03125 44.71875 
Q 8.5 49.078125 8.5 55.328125 
Q 8.5 64.0625 14.71875 69.140625 
Q 20.953125 74.21875 31.78125 74.21875 
Q 42.671875 74.21875 48.875 69.140625 
Q 55.078125 64.0625 55.078125 55.328125 
Q 55.078125 49.078125 51.53125 44.71875 
Q 48 40.375 41.703125 38.8125 
Q 48.828125 37.15625 52.796875 32.3125 
Q 56.78125 27.484375 56.78125 20.515625 
Q 56.78125 9.90625 50.3125 4.234375 
Q 43.84375 -1.421875 31.78125 -1.421875 
Q 19.734375 -1.421875 13.25 4.234375 
Q 6.78125 9.90625 6.78125 20.515625 
Q 6.78125 27.484375 10.78125 32.3125 
Q 14.796875 37.15625 21.921875 38.8125 
z
M 18.3125 54.390625 
Q 18.3125 48.734375 21.84375 45.5625 
Q 25.390625 42.390625 31.78125 42.390625 
Q 38.140625 42.390625 41.71875 45.5625 
Q 45.3125 48.734375 45.3125 54.390625 
Q 45.3125 60.0625 41.71875 63.234375 
Q 38.140625 66.40625 31.78125 66.40625 
Q 25.390625 66.40625 21.84375 63.234375 
Q 18.3125 60.0625 18.3125 54.390625 
z
" id="DejaVuSans-56"/>
      </defs>
      <g transform="translate(329.817335 322.182437)scale(0.1 -0.1)">
       <use xlink:href="#DejaVuSans-56"/>
       <use x="63.623047" xlink:href="#DejaVuSans-48"/>
      </g>
     </g>
    </g>
    <g id="xtick_6">
     <g id="line2d_6">
      <g>
       <use style="stroke:#000000;stroke-width:0.8;" x="401.766612" xlink:href="#mcdb109e035" y="307.584"/>
      </g>
     </g>
     <g id="text_6">
      <!-- 100 -->
      <defs>
       <path d="M 12.40625 8.296875 
L 28.515625 8.296875 
L 28.515625 63.921875 
L 10.984375 60.40625 
L 10.984375 69.390625 
L 28.421875 72.90625 
L 38.28125 72.90625 
L 38.28125 8.296875 
L 54.390625 8.296875 
L 54.390625 0 
L 12.40625 0 
z
" id="DejaVuSans-49"/>
      </defs>
      <g transform="translate(392.222862 322.182437)scale(0.1 -0.1)">
       <use xlink:href="#DejaVuSans-49"/>
       <use x="63.623047" xlink:href="#DejaVuSans-48"/>
       <use x="127.246094" xlink:href="#DejaVuSans-48"/>
      </g>
     </g>
    </g>
    <g id="text_7">
     <!-- Generations -->
     <defs>
      <path d="M 59.515625 10.40625 
L 59.515625 29.984375 
L 43.40625 29.984375 
L 43.40625 38.09375 
L 69.28125 38.09375 
L 69.28125 6.78125 
Q 63.578125 2.734375 56.6875 0.65625 
Q 49.8125 -1.421875 42 -1.421875 
Q 24.90625 -1.421875 15.25 8.5625 
Q 5.609375 18.5625 5.609375 36.375 
Q 5.609375 54.25 15.25 64.234375 
Q 24.90625 74.21875 42 74.21875 
Q 49.125 74.21875 55.546875 72.453125 
Q 61.96875 70.703125 67.390625 67.28125 
L 67.390625 56.78125 
Q 61.921875 61.421875 55.765625 63.765625 
Q 49.609375 66.109375 42.828125 66.109375 
Q 29.4375 66.109375 22.71875 58.640625 
Q 16.015625 51.171875 16.015625 36.375 
Q 16.015625 21.625 22.71875 14.15625 
Q 29.4375 6.6875 42.828125 6.6875 
Q 48.046875 6.6875 52.140625 7.59375 
Q 56.25 8.5 59.515625 10.40625 
z
" id="DejaVuSans-71"/>
      <path d="M 56.203125 29.59375 
L 56.203125 25.203125 
L 14.890625 25.203125 
Q 15.484375 15.921875 20.484375 11.0625 
Q 25.484375 6.203125 34.421875 6.203125 
Q 39.59375 6.203125 44.453125 7.46875 
Q 49.3125 8.734375 54.109375 11.28125 
L 54.109375 2.78125 
Q 49.265625 0.734375 44.1875 -0.34375 
Q 39.109375 -1.421875 33.890625 -1.421875 
Q 20.796875 -1.421875 13.15625 6.1875 
Q 5.515625 13.8125 5.515625 26.8125 
Q 5.515625 40.234375 12.765625 48.109375 
Q 20.015625 56 32.328125 56 
Q 43.359375 56 49.78125 48.890625 
Q 56.203125 41.796875 56.203125 29.59375 
z
M 47.21875 32.234375 
Q 47.125 39.59375 43.09375 43.984375 
Q 39.0625 48.390625 32.421875 48.390625 
Q 24.90625 48.390625 20.390625 44.140625 
Q 15.875 39.890625 15.1875 32.171875 
z
" id="DejaVuSans-101"/>
      <path d="M 54.890625 33.015625 
L 54.890625 0 
L 45.90625 0 
L 45.90625 32.71875 
Q 45.90625 40.484375 42.875 44.328125 
Q 39.84375 48.1875 33.796875 48.1875 
Q 26.515625 48.1875 22.3125 43.546875 
Q 18.109375 38.921875 18.109375 30.90625 
L 18.109375 0 
L 9.078125 0 
L 9.078125 54.6875 
L 18.109375 54.6875 
L 18.109375 46.1875 
Q 21.34375 51.125 25.703125 53.5625 
Q 30.078125 56 35.796875 56 
Q 45.21875 56 50.046875 50.171875 
Q 54.890625 44.34375 54.890625 33.015625 
z
" id="DejaVuSans-110"/>
      <path d="M 41.109375 46.296875 
Q 39.59375 47.171875 37.8125 47.578125 
Q 36.03125 48 33.890625 48 
Q 26.265625 48 22.1875 43.046875 
Q 18.109375 38.09375 18.109375 28.8125 
L 18.109375 0 
L 9.078125 0 
L 9.078125 54.6875 
L 18.109375 54.6875 
L 18.109375 46.1875 
Q 20.953125 51.171875 25.484375 53.578125 
Q 30.03125 56 36.53125 56 
Q 37.453125 56 38.578125 55.875 
Q 39.703125 55.765625 41.0625 55.515625 
z
" id="DejaVuSans-114"/>
      <path d="M 34.28125 27.484375 
Q 23.390625 27.484375 19.1875 25 
Q 14.984375 22.515625 14.984375 16.5 
Q 14.984375 11.71875 18.140625 8.90625 
Q 21.296875 6.109375 26.703125 6.109375 
Q 34.1875 6.109375 38.703125 11.40625 
Q 43.21875 16.703125 43.21875 25.484375 
L 43.21875 27.484375 
z
M 52.203125 31.203125 
L 52.203125 0 
L 43.21875 0 
L 43.21875 8.296875 
Q 40.140625 3.328125 35.546875 0.953125 
Q 30.953125 -1.421875 24.3125 -1.421875 
Q 15.921875 -1.421875 10.953125 3.296875 
Q 6 8.015625 6 15.921875 
Q 6 25.140625 12.171875 29.828125 
Q 18.359375 34.515625 30.609375 34.515625 
L 43.21875 34.515625 
L 43.21875 35.40625 
Q 43.21875 41.609375 39.140625 45 
Q 35.0625 48.390625 27.6875 48.390625 
Q 23 48.390625 18.546875 47.265625 
Q 14.109375 46.140625 10.015625 43.890625 
L 10.015625 52.203125 
Q 14.9375 54.109375 19.578125 55.046875 
Q 24.21875 56 28.609375 56 
Q 40.484375 56 46.34375 49.84375 
Q 52.203125 43.703125 52.203125 31.203125 
z
" id="DejaVuSans-97"/>
      <path d="M 18.3125 70.21875 
L 18.3125 54.6875 
L 36.8125 54.6875 
L 36.8125 47.703125 
L 18.3125 47.703125 
L 18.3125 18.015625 
Q 18.3125 11.328125 20.140625 9.421875 
Q 21.96875 7.515625 27.59375 7.515625 
L 36.8125 7.515625 
L 36.8125 0 
L 27.59375 0 
Q 17.1875 0 13.234375 3.875 
Q 9.28125 7.765625 9.28125 18.015625 
L 9.28125 47.703125 
L 2.6875 47.703125 
L 2.6875 54.6875 
L 9.28125 54.6875 
L 9.28125 70.21875 
z
" id="DejaVuSans-116"/>
      <path d="M 9.421875 54.6875 
L 18.40625 54.6875 
L 18.40625 0 
L 9.421875 0 
z
M 9.421875 75.984375 
L 18.40625 75.984375 
L 18.40625 64.59375 
L 9.421875 64.59375 
z
" id="DejaVuSans-105"/>
      <path d="M 30.609375 48.390625 
Q 23.390625 48.390625 19.1875 42.75 
Q 14.984375 37.109375 14.984375 27.296875 
Q 14.984375 17.484375 19.15625 11.84375 
Q 23.34375 6.203125 30.609375 6.203125 
Q 37.796875 6.203125 41.984375 11.859375 
Q 46.1875 17.53125 46.1875 27.296875 
Q 46.1875 37.015625 41.984375 42.703125 
Q 37.796875 48.390625 30.609375 48.390625 
z
M 30.609375 56 
Q 42.328125 56 49.015625 48.375 
Q 55.71875 40.765625 55.71875 27.296875 
Q 55.71875 13.875 49.015625 6.21875 
Q 42.328125 -1.421875 30.609375 -1.421875 
Q 18.84375 -1.421875 12.171875 6.21875 
Q 5.515625 13.875 5.515625 27.296875 
Q 5.515625 40.765625 12.171875 48.375 
Q 18.84375 56 30.609375 56 
z
" id="DejaVuSans-111"/>
      <path d="M 44.28125 53.078125 
L 44.28125 44.578125 
Q 40.484375 46.53125 36.375 47.5 
Q 32.28125 48.484375 27.875 48.484375 
Q 21.1875 48.484375 17.84375 46.4375 
Q 14.5 44.390625 14.5 40.28125 
Q 14.5 37.15625 16.890625 35.375 
Q 19.28125 33.59375 26.515625 31.984375 
L 29.59375 31.296875 
Q 39.15625 29.25 43.1875 25.515625 
Q 47.21875 21.78125 47.21875 15.09375 
Q 47.21875 7.46875 41.1875 3.015625 
Q 35.15625 -1.421875 24.609375 -1.421875 
Q 20.21875 -1.421875 15.453125 -0.5625 
Q 10.6875 0.296875 5.421875 2 
L 5.421875 11.28125 
Q 10.40625 8.6875 15.234375 7.390625 
Q 20.0625 6.109375 24.8125 6.109375 
Q 31.15625 6.109375 34.5625 8.28125 
Q 37.984375 10.453125 37.984375 14.40625 
Q 37.984375 18.0625 35.515625 20.015625 
Q 33.0625 21.96875 24.703125 23.78125 
L 21.578125 24.515625 
Q 13.234375 26.265625 9.515625 29.90625 
Q 5.8125 33.546875 5.8125 39.890625 
Q 5.8125 47.609375 11.28125 51.796875 
Q 16.75 56 26.8125 56 
Q 31.78125 56 36.171875 55.265625 
Q 40.578125 54.546875 44.28125 53.078125 
z
" id="DejaVuSans-115"/>
     </defs>
     <g transform="translate(205.662344 335.860562)scale(0.1 -0.1)">
      <use xlink:href="#DejaVuSans-71"/>
      <use x="77.490234" xlink:href="#DejaVuSans-101"/>
      <use x="139.013672" xlink:href="#DejaVuSans-110"/>
      <use x="202.392578" xlink:href="#DejaVuSans-101"/>
      <use x="263.916016" xlink:href="#DejaVuSans-114"/>
      <use x="305.029297" xlink:href="#DejaVuSans-97"/>
      <use x="366.308594" xlink:href="#DejaVuSans-116"/>
      <use x="405.517578" xlink:href="#DejaVuSans-105"/>
      <use x="433.300781" xlink:href="#DejaVuSans-111"/>
      <use x="494.482422" xlink:href="#DejaVuSans-110"/>
      <use x="557.861328" xlink:href="#DejaVuSans-115"/>
     </g>
    </g>
   </g>
   <g id="matplotlib.axis_2">
    <g id="ytick_1">
     <g id="line2d_7">
      <defs>
       <path d="M 0 0 
L -3.5 0 
" id="m53116211cb" style="stroke:#000000;stroke-width:0.8;"/>
      </defs>
      <g>
       <use style="stroke:#000000;stroke-width:0.8;" x="57.6" xlink:href="#m53116211cb" y="307.584"/>
      </g>
     </g>
     <g id="text_8">
      <!-- 0 -->
      <g transform="translate(44.2375 311.383219)scale(0.1 -0.1)">
       <use xlink:href="#DejaVuSans-48"/>
      </g>
     </g>
    </g>
    <g id="ytick_2">
     <g id="line2d_8">
      <g>
       <use style="stroke:#000000;stroke-width:0.8;" x="57.6" xlink:href="#m53116211cb" y="257.889882"/>
      </g>
     </g>
     <g id="text_9">
      <!-- 20 -->
      <g transform="translate(37.875 261.689101)scale(0.1 -0.1)">
       <use xlink:href="#DejaVuSans-50"/>
       <use x="63.623047" xlink:href="#DejaVuSans-48"/>
      </g>
     </g>
    </g>
    <g id="ytick_3">
     <g id="line2d_9">
      <g>
       <use style="stroke:#000000;stroke-width:0.8;" x="57.6" xlink:href="#m53116211cb" y="208.195765"/>
      </g>
     </g>
     <g id="text_10">
      <!-- 40 -->
      <g transform="translate(37.875 211.994983)scale(0.1 -0.1)">
       <use xlink:href="#DejaVuSans-52"/>
       <use x="63.623047" xlink:href="#DejaVuSans-48"/>
      </g>
     </g>
    </g>
    <g id="ytick_4">
     <g id="line2d_10">
      <g>
       <use style="stroke:#000000;stroke-width:0.8;" x="57.6" xlink:href="#m53116211cb" y="158.501647"/>
      </g>
     </g>
     <g id="text_11">
      <!-- 60 -->
      <g transform="translate(37.875 162.300866)scale(0.1 -0.1)">
       <use xlink:href="#DejaVuSans-54"/>
       <use x="63.623047" xlink:href="#DejaVuSans-48"/>
      </g>
     </g>
    </g>
    <g id="ytick_5">
     <g id="line2d_11">
      <g>
       <use style="stroke:#000000;stroke-width:0.8;" x="57.6" xlink:href="#m53116211cb" y="108.807529"/>
      </g>
     </g>
     <g id="text_12">
      <!-- 80 -->
      <g transform="translate(37.875 112.606748)scale(0.1 -0.1)">
       <use xlink:href="#DejaVuSans-56"/>
       <use x="63.623047" xlink:href="#DejaVuSans-48"/>
      </g>
     </g>
    </g>
    <g id="ytick_6">
     <g id="line2d_12">
      <g>
       <use style="stroke:#000000;stroke-width:0.8;" x="57.6" xlink:href="#m53116211cb" y="59.113412"/>
      </g>
     </g>
     <g id="text_13">
      <!-- 100 -->
      <g transform="translate(31.5125 62.912631)scale(0.1 -0.1)">
       <use xlink:href="#DejaVuSans-49"/>
       <use x="63.623047" xlink:href="#DejaVuSans-48"/>
       <use x="127.246094" xlink:href="#DejaVuSans-48"/>
      </g>
     </g>
    </g>
    <g id="text_14">
     <!-- Size per Species -->
     <defs>
      <path d="M 53.515625 70.515625 
L 53.515625 60.890625 
Q 47.90625 63.578125 42.921875 64.890625 
Q 37.9375 66.21875 33.296875 66.21875 
Q 25.25 66.21875 20.875 63.09375 
Q 16.5 59.96875 16.5 54.203125 
Q 16.5 49.359375 19.40625 46.890625 
Q 22.3125 44.4375 30.421875 42.921875 
L 36.375 41.703125 
Q 47.40625 39.59375 52.65625 34.296875 
Q 57.90625 29 57.90625 20.125 
Q 57.90625 9.515625 50.796875 4.046875 
Q 43.703125 -1.421875 29.984375 -1.421875 
Q 24.8125 -1.421875 18.96875 -0.25 
Q 13.140625 0.921875 6.890625 3.21875 
L 6.890625 13.375 
Q 12.890625 10.015625 18.65625 8.296875 
Q 24.421875 6.59375 29.984375 6.59375 
Q 38.421875 6.59375 43.015625 9.90625 
Q 47.609375 13.234375 47.609375 19.390625 
Q 47.609375 24.75 44.3125 27.78125 
Q 41.015625 30.8125 33.5 32.328125 
L 27.484375 33.5 
Q 16.453125 35.6875 11.515625 40.375 
Q 6.59375 45.0625 6.59375 53.421875 
Q 6.59375 63.09375 13.40625 68.65625 
Q 20.21875 74.21875 32.171875 74.21875 
Q 37.3125 74.21875 42.625 73.28125 
Q 47.953125 72.359375 53.515625 70.515625 
z
" id="DejaVuSans-83"/>
      <path d="M 5.515625 54.6875 
L 48.1875 54.6875 
L 48.1875 46.484375 
L 14.40625 7.171875 
L 48.1875 7.171875 
L 48.1875 0 
L 4.296875 0 
L 4.296875 8.203125 
L 38.09375 47.515625 
L 5.515625 47.515625 
z
" id="DejaVuSans-122"/>
      <path id="DejaVuSans-32"/>
      <path d="M 18.109375 8.203125 
L 18.109375 -20.796875 
L 9.078125 -20.796875 
L 9.078125 54.6875 
L 18.109375 54.6875 
L 18.109375 46.390625 
Q 20.953125 51.265625 25.265625 53.625 
Q 29.59375 56 35.59375 56 
Q 45.5625 56 51.78125 48.09375 
Q 58.015625 40.1875 58.015625 27.296875 
Q 58.015625 14.40625 51.78125 6.484375 
Q 45.5625 -1.421875 35.59375 -1.421875 
Q 29.59375 -1.421875 25.265625 0.953125 
Q 20.953125 3.328125 18.109375 8.203125 
z
M 48.6875 27.296875 
Q 48.6875 37.203125 44.609375 42.84375 
Q 40.53125 48.484375 33.40625 48.484375 
Q 26.265625 48.484375 22.1875 42.84375 
Q 18.109375 37.203125 18.109375 27.296875 
Q 18.109375 17.390625 22.1875 11.75 
Q 26.265625 6.109375 33.40625 6.109375 
Q 40.53125 6.109375 44.609375 11.75 
Q 48.6875 17.390625 48.6875 27.296875 
z
" id="DejaVuSans-112"/>
      <path d="M 48.78125 52.59375 
L 48.78125 44.1875 
Q 44.96875 46.296875 41.140625 47.34375 
Q 37.3125 48.390625 33.40625 48.390625 
Q 24.65625 48.390625 19.8125 42.84375 
Q 14.984375 37.3125 14.984375 27.296875 
Q 14.984375 17.28125 19.8125 11.734375 
Q 24.65625 6.203125 33.40625 6.203125 
Q 37.3125 6.203125 41.140625 7.25 
Q 44.96875 8.296875 48.78125 10.40625 
L 48.78125 2.09375 
Q 45.015625 0.34375 40.984375 -0.53125 
Q 36.96875 -1.421875 32.421875 -1.421875 
Q 20.0625 -1.421875 12.78125 6.34375 
Q 5.515625 14.109375 5.515625 27.296875 
Q 5.515625 40.671875 12.859375 48.328125 
Q 20.21875 56 33.015625 56 
Q 37.15625 56 41.109375 55.140625 
Q 45.0625 54.296875 48.78125 52.59375 
z
" id="DejaVuSans-99"/>
     </defs>
     <g transform="translate(25.432812 215.520969)rotate(-90)scale(0.1 -0.1)">
      <use xlink:href="#DejaVuSans-83"/>
      <use x="63.476562" xlink:href="#DejaVuSans-105"/>
      <use x="91.259766" xlink:href="#DejaVuSans-122"/>
      <use x="143.75" xlink:href="#DejaVuSans-101"/>
      <use x="205.273438" xlink:href="#DejaVuSans-32"/>
      <use x="237.060547" xlink:href="#DejaVuSans-112"/>
      <use x="300.537109" xlink:href="#DejaVuSans-101"/>
      <use x="362.060547" xlink:href="#DejaVuSans-114"/>
      <use x="403.173828" xlink:href="#DejaVuSans-32"/>
      <use x="434.960938" xlink:href="#DejaVuSans-83"/>
      <use x="498.4375" xlink:href="#DejaVuSans-112"/>
      <use x="561.914062" xlink:href="#DejaVuSans-101"/>
      <use x="623.4375" xlink:href="#DejaVuSans-99"/>
      <use x="678.417969" xlink:href="#DejaVuSans-105"/>
      <use x="706.201172" xlink:href="#DejaVuSans-101"/>
      <use x="767.724609" xlink:href="#DejaVuSans-115"/>
     </g>
    </g>
   </g>
   <g id="patch_3">
    <path d="M 57.6 307.584 
L 57.6 41.472 
" style="fill:none;stroke:#000000;stroke-linecap:square;stroke-linejoin:miter;stroke-width:0.8;"/>
   </g>
   <g id="patch_4">
    <path d="M 414.72 307.584 
L 414.72 41.472 
" style="fill:none;stroke:#000000;stroke-linecap:square;stroke-linejoin:miter;stroke-width:0.8;"/>
   </g>
   <g id="patch_5">
    <path d="M 57.6 307.584 
L 414.72 307.584 
" style="fill:none;stroke:#000000;stroke-linecap:square;stroke-linejoin:miter;stroke-width:0.8;"/>
   </g>
   <g id="patch_6">
    <path d="M 57.6 41.472 
L 414.72 41.472 
" style="fill:none;stroke:#000000;stroke-linecap:square;stroke-linejoin:miter;stroke-width:0.8;"/>
   </g>
   <g id="text_15">
    <!-- Speciation -->
    <g transform="translate(204.714375 35.472)scale(0.12 -0.12)">
     <use xlink:href="#DejaVuSans-83"/>
     <use x="63.476562" xlink:href="#DejaVuSans-112"/>
     <use x="126.953125" xlink:href="#DejaVuSans-101"/>
     <use x="188.476562" xlink:href="#DejaVuSans-99"/>
     <use x="243.457031" xlink:href="#DejaVuSans-105"/>
     <use x="271.240234" xlink:href="#DejaVuSans-97"/>
     <use x="332.519531" xlink:href="#DejaVuSans-116"/>
     <use x="371.728516" xlink:href="#DejaVuSans-105"/>
     <use x="399.511719" xlink:href="#DejaVuSans-111"/>
     <use x="460.693359" xlink:href="#DejaVuSans-110"/>
    </g>
   </g>
  </g>
 </g>
 <defs>
  <clipPath id="p32ea0b59d6">
   <rect height="266.112" width="357.12" x="57.6" y="41.472"/>
  </clipPath>
 </defs>
</svg>
