<?xml version="1.0" encoding="UTF-8" standalone="no"?>
<!DOCTYPE svg PUBLIC "-//W3C//DTD SVG 1.1//EN"
 "http://www.w3.org/Graphics/SVG/1.1/DTD/svg11.dtd">
<!-- Generated by graphviz version 2.38.0 (20140413.2041)
 -->
<!-- Title: %3 Pages: 1 -->
<svg width="1719pt" height="249pt"
 viewBox="0.00 0.00 1718.71 248.55" xmlns="http://www.w3.org/2000/svg" xmlns:xlink="http://www.w3.org/1999/xlink">
<g id="graph0" class="graph" transform="scale(1 1) rotate(0) translate(4 244.551)">
<title>%3</title>
<polygon fill="white" stroke="none" points="-4,4 -4,-244.551 1714.71,-244.551 1714.71,4 -4,4"/>
<!-- &#45;1 -->
<g id="node1" class="node"><title>&#45;1</title>
<polygon fill="lightgray" stroke="black" points="1488.21,-174.338 1464.21,-174.338 1464.21,-156.338 1488.21,-156.338 1488.21,-174.338"/>
<text text-anchor="middle" x="1476.21" y="-163.138" font-family="Times New Roman,serif" font-size="9.00">&#45;1</text>
</g>
<!-- 0 -->
<g id="node35" class="node"><title>0</title>
<ellipse fill="lightblue" stroke="black" cx="1408.21" cy="-86.9117" rx="14.7" ry="14.7"/>
<text text-anchor="middle" x="1408.21" y="-84.7117" font-family="Times New Roman,serif" font-size="9.00">0</text>
</g>
<!-- &#45;1&#45;&gt;0 -->
<g id="edge2" class="edge"><title>&#45;1&#45;&gt;0</title>
<path fill="none" stroke="green" stroke-width="0.536644" stroke-dasharray="1,5" d="M1468.94,-156.159C1458.37,-144.289 1438.52,-121.972 1424.39,-106.092"/>
<polygon fill="green" stroke="green" stroke-width="0.536644" points="1426.86,-103.608 1417.6,-98.4632 1421.63,-108.261 1426.86,-103.608"/>
</g>
<!-- 1 -->
<g id="node36" class="node"><title>1</title>
<ellipse fill="lightblue" stroke="black" cx="989.213" cy="-86.9117" rx="14.7" ry="14.7"/>
<text text-anchor="middle" x="989.213" y="-84.7117" font-family="Times New Roman,serif" font-size="9.00">1</text>
</g>
<!-- &#45;1&#45;&gt;1 -->
<g id="edge13" class="edge"><title>&#45;1&#45;&gt;1</title>
<path fill="none" stroke="green" stroke-width="0.76305" d="M1469.74,-156.315C1465.74,-151.956 1460.24,-146.903 1454.21,-144.125 1374.61,-107.455 1099.39,-92.6841 1014.41,-88.9319"/>
<polygon fill="green" stroke="green" stroke-width="0.76305" points="1014.5,-85.4328 1004.36,-88.5011 1014.2,-92.4264 1014.5,-85.4328"/>
</g>
<!-- &#45;2 -->
<g id="node2" class="node"><title>&#45;2</title>
<polygon fill="lightgray" stroke="black" points="1663.21,-174.338 1639.21,-174.338 1639.21,-156.338 1663.21,-156.338 1663.21,-174.338"/>
<text text-anchor="middle" x="1651.21" y="-163.138" font-family="Times New Roman,serif" font-size="9.00">&#45;2</text>
</g>
<!-- &#45;2&#45;&gt;1 -->
<g id="edge21" class="edge"><title>&#45;2&#45;&gt;1</title>
<path fill="none" stroke="red" stroke-width="0.427692" stroke-dasharray="1,5" d="M1638.8,-159.118C1627.02,-154.401 1608.73,-147.671 1592.21,-144.125 1371.84,-96.8061 1097.7,-89.3179 1014.38,-88.1338"/>
<polygon fill="red" stroke="red" stroke-width="0.427692" points="1014.37,-84.6336 1004.33,-88.0094 1014.29,-91.6331 1014.37,-84.6336"/>
</g>
<!-- 6 -->
<g id="node40" class="node"><title>6</title>
<ellipse fill="white" stroke="black" cx="1408.21" cy="-14.8492" rx="14.7" ry="14.7"/>
<text text-anchor="middle" x="1408.21" y="-12.6492" font-family="Times New Roman,serif" font-size="9.00">6</text>
</g>
<!-- &#45;2&#45;&gt;6 -->
<g id="edge59" class="edge"><title>&#45;2&#45;&gt;6</title>
<path fill="none" stroke="green" stroke-width="0.162715" stroke-dasharray="1,5" d="M1639.16,-156.975C1600.39,-133.28 1478.5,-58.8008 1429.21,-28.6798"/>
<polygon fill="green" stroke="green" stroke-width="0.162715" points="1430.98,-25.6619 1420.63,-23.4342 1427.33,-31.635 1430.98,-25.6619"/>
</g>
<!-- &#45;3 -->
<g id="node3" class="node"><title>&#45;3</title>
<polygon fill="lightgray" stroke="black" points="133.213,-240.551 109.213,-240.551 109.213,-222.551 133.213,-222.551 133.213,-240.551"/>
<text text-anchor="middle" x="121.213" y="-229.351" font-family="Times New Roman,serif" font-size="9.00">&#45;3</text>
</g>
<!-- 2 -->
<g id="node37" class="node"><title>2</title>
<ellipse fill="lightblue" stroke="black" cx="393.213" cy="-86.9117" rx="14.7" ry="14.7"/>
<text text-anchor="middle" x="393.213" y="-84.7117" font-family="Times New Roman,serif" font-size="9.00">2</text>
</g>
<!-- &#45;3&#45;&gt;2 -->
<g id="edge23" class="edge"><title>&#45;3&#45;&gt;2</title>
<path fill="none" stroke="green" stroke-width="0.316703" stroke-dasharray="1,5" d="M118.924,-222.458C114.696,-205.609 107.767,-166.481 127.213,-144.125 158.709,-107.917 307.998,-93.7633 368.079,-89.4725"/>
<polygon fill="green" stroke="green" stroke-width="0.316703" points="368.471,-92.954 378.211,-88.783 367.996,-85.9701 368.471,-92.954"/>
</g>
<!-- 259 -->
<g id="node38" class="node"><title>259</title>
<ellipse fill="white" stroke="black" cx="393.213" cy="-165.338" rx="21.4286" ry="21.4286"/>
<text text-anchor="middle" x="393.213" y="-163.138" font-family="Times New Roman,serif" font-size="9.00">259</text>
</g>
<!-- &#45;3&#45;&gt;259 -->
<g id="edge8" class="edge"><title>&#45;3&#45;&gt;259</title>
<path fill="none" stroke="green" stroke-width="0.245626" d="M133.464,-230.016C169.704,-228.081 279.044,-219.693 362.213,-186.551 364.049,-185.82 365.89,-184.973 367.71,-184.048"/>
<polygon fill="green" stroke="green" stroke-width="0.245626" points="369.602,-186.997 376.5,-178.955 366.093,-180.94 369.602,-186.997"/>
</g>
<!-- &#45;4 -->
<g id="node4" class="node"><title>&#45;4</title>
<polygon fill="lightgray" stroke="black" points="456.213,-174.338 432.213,-174.338 432.213,-156.338 456.213,-156.338 456.213,-174.338"/>
<text text-anchor="middle" x="444.213" y="-163.138" font-family="Times New Roman,serif" font-size="9.00">&#45;4</text>
</g>
<!-- &#45;4&#45;&gt;2 -->
<g id="edge7" class="edge"><title>&#45;4&#45;&gt;2</title>
<path fill="none" stroke="green" stroke-width="0.347127" stroke-dasharray="1,5" d="M438.755,-156.159C431.194,-144.828 417.282,-123.98 406.816,-108.296"/>
<polygon fill="green" stroke="green" stroke-width="0.347127" points="409.588,-106.145 401.126,-99.7695 403.765,-110.03 409.588,-106.145"/>
</g>
<!-- &#45;4&#45;&gt;6 -->
<g id="edge12" class="edge"><title>&#45;4&#45;&gt;6</title>
<path fill="none" stroke="red" stroke-width="0.288193" stroke-dasharray="1,5" d="M451.35,-156.031C455.144,-152.012 460.079,-147.368 465.213,-144.125 548.739,-91.3576 576.672,-86.6939 673.213,-65.6985 813.211,-35.2522 1271.1,-19.917 1383.25,-16.5625"/>
<polygon fill="red" stroke="red" stroke-width="0.288193" points="1383.39,-20.0601 1393.28,-16.2671 1383.18,-13.0631 1383.39,-20.0601"/>
</g>
<!-- 139 -->
<g id="node42" class="node"><title>139</title>
<ellipse fill="white" stroke="black" cx="703.213" cy="-86.9117" rx="21.4286" ry="21.4286"/>
<text text-anchor="middle" x="703.213" y="-84.7117" font-family="Times New Roman,serif" font-size="9.00">139</text>
</g>
<!-- &#45;4&#45;&gt;139 -->
<g id="edge36" class="edge"><title>&#45;4&#45;&gt;139</title>
<path fill="none" stroke="green" stroke-width="0.100246" stroke-dasharray="1,5" d="M450.811,-156.153C454.605,-151.965 459.704,-147.128 465.213,-144.125 532.965,-107.189 624.48,-94.365 671.865,-90.0335"/>
<polygon fill="green" stroke="green" stroke-width="0.100246" points="672.16,-93.5211 681.829,-89.1896 671.569,-86.546 672.16,-93.5211"/>
</g>
<!-- &#45;5 -->
<g id="node5" class="node"><title>&#45;5</title>
<polygon fill="lightgray" stroke="black" points="1398.21,-174.338 1374.21,-174.338 1374.21,-156.338 1398.21,-156.338 1398.21,-174.338"/>
<text text-anchor="middle" x="1386.21" y="-163.138" font-family="Times New Roman,serif" font-size="9.00">&#45;5</text>
</g>
<!-- &#45;5&#45;&gt;0 -->
<g id="edge30" class="edge"><title>&#45;5&#45;&gt;0</title>
<path fill="none" stroke="green" stroke-width="0.147389" d="M1388.57,-156.159C1391.63,-145.521 1397.11,-126.495 1401.5,-111.229"/>
<polygon fill="green" stroke="green" stroke-width="0.147389" points="1404.92,-111.988 1404.33,-101.41 1398.2,-110.052 1404.92,-111.988"/>
</g>
<!-- &#45;5&#45;&gt;1 -->
<g id="edge14" class="edge"><title>&#45;5&#45;&gt;1</title>
<path fill="none" stroke="red" stroke-width="0.158548" stroke-dasharray="1,5" d="M1379.33,-155.97C1375.36,-151.728 1370.02,-146.899 1364.21,-144.125 1301.65,-114.214 1088.07,-95.4621 1014.42,-89.7606"/>
<polygon fill="red" stroke="red" stroke-width="0.158548" points="1014.46,-86.2536 1004.23,-88.986 1013.93,-93.2335 1014.46,-86.2536"/>
</g>
<!-- &#45;6 -->
<g id="node6" class="node"><title>&#45;6</title>
<polygon fill="lightgray" stroke="black" points="69.2132,-240.551 45.2132,-240.551 45.2132,-222.551 69.2132,-222.551 69.2132,-240.551"/>
<text text-anchor="middle" x="57.2132" y="-229.351" font-family="Times New Roman,serif" font-size="9.00">&#45;6</text>
</g>
<!-- &#45;6&#45;&gt;2 -->
<g id="edge53" class="edge"><title>&#45;6&#45;&gt;2</title>
<path fill="none" stroke="red" stroke-width="0.171111" d="M59.7383,-222.32C65.5502,-204.851 81.616,-164.044 110.213,-144.125 152.101,-114.949 306.672,-96.5989 367.95,-90.3299"/>
<polygon fill="red" stroke="red" stroke-width="0.171111" points="368.655,-93.7769 378.258,-89.3001 367.959,-86.8116 368.655,-93.7769"/>
</g>
<!-- 231 -->
<g id="node41" class="node"><title>231</title>
<ellipse fill="white" stroke="black" cx="21.2132" cy="-165.338" rx="21.4286" ry="21.4286"/>
<text text-anchor="middle" x="21.2132" y="-163.138" font-family="Times New Roman,serif" font-size="9.00">231</text>
</g>
<!-- &#45;6&#45;&gt;231 -->
<g id="edge57" class="edge"><title>&#45;6&#45;&gt;231</title>
<path fill="none" stroke="green" stroke-width="0.13641" d="M52.6538,-222.419C48.4979,-215.006 42.1211,-203.631 36.1939,-193.059"/>
<polygon fill="green" stroke="green" stroke-width="0.13641" points="39.1113,-191.106 31.168,-184.095 33.0054,-194.529 39.1113,-191.106"/>
</g>
<!-- &#45;7 -->
<g id="node7" class="node"><title>&#45;7</title>
<polygon fill="lightgray" stroke="black" points="1261.21,-240.551 1237.21,-240.551 1237.21,-222.551 1261.21,-222.551 1261.21,-240.551"/>
<text text-anchor="middle" x="1249.21" y="-229.351" font-family="Times New Roman,serif" font-size="9.00">&#45;7</text>
</g>
<!-- &#45;8 -->
<g id="node8" class="node"><title>&#45;8</title>
<polygon fill="lightgray" stroke="black" points="640.213,-174.338 616.213,-174.338 616.213,-156.338 640.213,-156.338 640.213,-174.338"/>
<text text-anchor="middle" x="628.213" y="-163.138" font-family="Times New Roman,serif" font-size="9.00">&#45;8</text>
</g>
<!-- &#45;8&#45;&gt;1 -->
<g id="edge9" class="edge"><title>&#45;8&#45;&gt;1</title>
<path fill="none" stroke="green" stroke-width="0.282202" stroke-dasharray="1,5" d="M634.732,-156.003C638.503,-151.769 643.605,-146.939 649.213,-144.125 756.971,-90.053 905.754,-86.2767 964.207,-87.1187"/>
<polygon fill="green" stroke="green" stroke-width="0.282202" points="964.278,-90.6208 974.348,-87.3268 964.422,-83.6223 964.278,-90.6208"/>
</g>
<!-- &#45;8&#45;&gt;2 -->
<g id="edge24" class="edge"><title>&#45;8&#45;&gt;2</title>
<path fill="none" stroke="green" stroke-width="0.242025" stroke-dasharray="1,5" d="M621.198,-156.22C617.194,-152.05 611.856,-147.212 606.213,-144.125 543.688,-109.921 459.328,-95.7272 418.051,-90.5352"/>
<polygon fill="green" stroke="green" stroke-width="0.242025" points="418.406,-87.0529 408.063,-89.3512 417.582,-94.0043 418.406,-87.0529"/>
</g>
<!-- &#45;9 -->
<g id="node9" class="node"><title>&#45;9</title>
<polygon fill="lightgray" stroke="black" points="1116.21,-174.338 1092.21,-174.338 1092.21,-156.338 1116.21,-156.338 1116.21,-174.338"/>
<text text-anchor="middle" x="1104.21" y="-163.138" font-family="Times New Roman,serif" font-size="9.00">&#45;9</text>
</g>
<!-- &#45;9&#45;&gt;1 -->
<g id="edge26" class="edge"><title>&#45;9&#45;&gt;1</title>
<path fill="none" stroke="green" stroke-width="0.232751" stroke-dasharray="1,5" d="M1095.99,-156.053C1092,-152.223 1087.03,-147.734 1082.21,-144.125 1059.1,-126.794 1030.36,-110.083 1011,-99.4522"/>
<polygon fill="green" stroke="green" stroke-width="0.232751" points="1012.52,-96.2955 1002.06,-94.6106 1009.19,-102.451 1012.52,-96.2955"/>
</g>
<!-- &#45;10 -->
<g id="node10" class="node"><title>&#45;10</title>
<polygon fill="lightgray" stroke="black" points="165.713,-174.338 136.713,-174.338 136.713,-156.338 165.713,-156.338 165.713,-174.338"/>
<text text-anchor="middle" x="151.213" y="-163.138" font-family="Times New Roman,serif" font-size="9.00">&#45;10</text>
</g>
<!-- &#45;10&#45;&gt;2 -->
<g id="edge1" class="edge"><title>&#45;10&#45;&gt;2</title>
<path fill="none" stroke="green" stroke-width="0.386601" d="M158.604,-156.214C162.807,-152.043 168.385,-147.205 174.213,-144.125 239.205,-109.782 326.3,-95.6032 368.384,-90.4653"/>
<polygon fill="green" stroke="green" stroke-width="0.386601" points="369.006,-93.917 378.54,-89.2966 368.205,-86.9629 369.006,-93.917"/>
</g>
<!-- &#45;11 -->
<g id="node11" class="node"><title>&#45;11</title>
<polygon fill="lightgray" stroke="black" points="765.713,-240.551 736.713,-240.551 736.713,-222.551 765.713,-222.551 765.713,-240.551"/>
<text text-anchor="middle" x="751.213" y="-229.351" font-family="Times New Roman,serif" font-size="9.00">&#45;11</text>
</g>
<!-- &#45;11&#45;&gt;1 -->
<g id="edge4" class="edge"><title>&#45;11&#45;&gt;1</title>
<path fill="none" stroke="red" stroke-width="0.396162" stroke-dasharray="1,5" d="M755.966,-222.371C766.253,-205.359 792.255,-165.937 824.213,-144.125 868.421,-113.953 930.298,-98.6405 964.331,-92.0564"/>
<polygon fill="red" stroke="red" stroke-width="0.396162" points="965.141,-95.4662 974.344,-90.2176 963.877,-88.5814 965.141,-95.4662"/>
</g>
<!-- 161 -->
<g id="node39" class="node"><title>161</title>
<ellipse fill="white" stroke="black" cx="727.213" cy="-165.338" rx="21.4286" ry="21.4286"/>
<text text-anchor="middle" x="727.213" y="-163.138" font-family="Times New Roman,serif" font-size="9.00">161</text>
</g>
<!-- &#45;11&#45;&gt;161 -->
<g id="edge49" class="edge"><title>&#45;11&#45;&gt;161</title>
<path fill="none" stroke="red" stroke-width="0.128575" d="M748.174,-222.419C745.555,-215.411 741.612,-204.864 737.851,-194.801"/>
<polygon fill="red" stroke="red" stroke-width="0.128575" points="741.129,-193.573 734.35,-185.432 734.572,-196.024 741.129,-193.573"/>
</g>
<!-- &#45;12 -->
<g id="node12" class="node"><title>&#45;12</title>
<polygon fill="lightgray" stroke="black" points="1218.71,-240.551 1189.71,-240.551 1189.71,-222.551 1218.71,-222.551 1218.71,-240.551"/>
<text text-anchor="middle" x="1204.21" y="-229.351" font-family="Times New Roman,serif" font-size="9.00">&#45;12</text>
</g>
<!-- &#45;12&#45;&gt;0 -->
<g id="edge6" class="edge"><title>&#45;12&#45;&gt;0</title>
<path fill="none" stroke="red" stroke-width="0.228722" stroke-dasharray="1,5" d="M1218.79,-225.116C1221.87,-224.132 1225.12,-223.211 1228.21,-222.551 1307.71,-205.594 1537.64,-246.789 1592.21,-186.551 1604.87,-172.577 1603.43,-159.281 1592.21,-144.125 1555.17,-94.0771 1474.51,-87.1097 1433.4,-87.0201"/>
<polygon fill="red" stroke="red" stroke-width="0.228722" points="1433.11,-83.5232 1423.15,-87.141 1433.19,-90.5227 1433.11,-83.5232"/>
</g>
<!-- &#45;12&#45;&gt;1 -->
<g id="edge17" class="edge"><title>&#45;12&#45;&gt;1</title>
<path fill="none" stroke="green" stroke-width="0.250216" d="M1204.95,-222.411C1206.01,-205.474 1205.93,-166.188 1185.21,-144.125 1139.84,-95.7989 1055.97,-88.0947 1014.2,-87.4414"/>
<polygon fill="green" stroke="green" stroke-width="0.250216" points="1014.08,-83.9411 1004.07,-87.4112 1014.06,-90.9411 1014.08,-83.9411"/>
</g>
<!-- 145 -->
<g id="node44" class="node"><title>145</title>
<ellipse fill="white" stroke="black" cx="1155.21" cy="-165.338" rx="21.4286" ry="21.4286"/>
<text text-anchor="middle" x="1155.21" y="-163.138" font-family="Times New Roman,serif" font-size="9.00">145</text>
</g>
<!-- &#45;12&#45;&gt;145 -->
<g id="edge60" class="edge"><title>&#45;12&#45;&gt;145</title>
<path fill="none" stroke="green" stroke-width="0.246963" d="M1198.01,-222.419C1191.97,-214.512 1182.5,-202.099 1174,-190.959"/>
<polygon fill="green" stroke="green" stroke-width="0.246963" points="1176.61,-188.611 1167.76,-182.785 1171.05,-192.858 1176.61,-188.611"/>
</g>
<!-- &#45;13 -->
<g id="node13" class="node"><title>&#45;13</title>
<polygon fill="lightgray" stroke="black" points="687.713,-174.338 658.713,-174.338 658.713,-156.338 687.713,-156.338 687.713,-174.338"/>
<text text-anchor="middle" x="673.213" y="-163.138" font-family="Times New Roman,serif" font-size="9.00">&#45;13</text>
</g>
<!-- &#45;13&#45;&gt;1 -->
<g id="edge44" class="edge"><title>&#45;13&#45;&gt;1</title>
<path fill="none" stroke="green" stroke-width="0.195318" stroke-dasharray="1,5" d="M680.913,-156.077C685.295,-151.866 691.116,-147.033 697.213,-144.125 788.784,-100.446 911.841,-90.7018 964.08,-88.5316"/>
<polygon fill="green" stroke="green" stroke-width="0.195318" points="964.246,-92.0279 974.115,-88.1739 963.997,-85.0324 964.246,-92.0279"/>
</g>
<!-- &#45;13&#45;&gt;2 -->
<g id="edge22" class="edge"><title>&#45;13&#45;&gt;2</title>
<path fill="none" stroke="green" stroke-width="0.189468" d="M665.483,-156.14C661.092,-151.948 655.272,-147.112 649.213,-144.125 570.812,-105.471 465.924,-93.1753 418.447,-89.4454"/>
<polygon fill="green" stroke="green" stroke-width="0.189468" points="418.404,-85.9333 408.178,-88.7043 417.9,-92.9151 418.404,-85.9333"/>
</g>
<!-- &#45;14 -->
<g id="node14" class="node"><title>&#45;14</title>
<polygon fill="lightgray" stroke="black" points="212.713,-174.338 183.713,-174.338 183.713,-156.338 212.713,-156.338 212.713,-174.338"/>
<text text-anchor="middle" x="198.213" y="-163.138" font-family="Times New Roman,serif" font-size="9.00">&#45;14</text>
</g>
<!-- &#45;14&#45;&gt;2 -->
<g id="edge15" class="edge"><title>&#45;14&#45;&gt;2</title>
<path fill="none" stroke="red" stroke-width="0.244356" d="M206.099,-155.962C210.272,-151.925 215.672,-147.286 221.213,-144.125 269.719,-116.453 333.795,-100.106 368.429,-92.6998"/>
<polygon fill="red" stroke="red" stroke-width="0.244356" points="369.495,-96.0536 378.582,-90.6061 368.082,-89.1979 369.495,-96.0536"/>
</g>
<!-- &#45;15 -->
<g id="node15" class="node"><title>&#45;15</title>
<polygon fill="lightgray" stroke="black" points="1308.71,-240.551 1279.71,-240.551 1279.71,-222.551 1308.71,-222.551 1308.71,-240.551"/>
<text text-anchor="middle" x="1294.21" y="-229.351" font-family="Times New Roman,serif" font-size="9.00">&#45;15</text>
</g>
<!-- &#45;16 -->
<g id="node16" class="node"><title>&#45;16</title>
<polygon fill="lightgray" stroke="black" points="550.713,-174.338 521.713,-174.338 521.713,-156.338 550.713,-156.338 550.713,-174.338"/>
<text text-anchor="middle" x="536.213" y="-163.138" font-family="Times New Roman,serif" font-size="9.00">&#45;16</text>
</g>
<!-- &#45;16&#45;&gt;1 -->
<g id="edge41" class="edge"><title>&#45;16&#45;&gt;1</title>
<path fill="none" stroke="green" stroke-width="0.112177" d="M543.065,-156.338C547.266,-151.987 553.016,-146.934 559.213,-144.125 632.567,-110.883 883.623,-93.9426 964.143,-89.2734"/>
<polygon fill="green" stroke="green" stroke-width="0.112177" points="964.551,-92.756 974.337,-88.6956 964.155,-85.7672 964.551,-92.756"/>
</g>
<!-- &#45;16&#45;&gt;2 -->
<g id="edge51" class="edge"><title>&#45;16&#45;&gt;2</title>
<path fill="none" stroke="red" stroke-width="0.176784" stroke-dasharray="1,5" d="M527.748,-156.275C523.332,-152.318 517.715,-147.656 512.213,-144.125 480.919,-124.038 441.319,-106.772 416.622,-96.8582"/>
<polygon fill="red" stroke="red" stroke-width="0.176784" points="417.604,-93.4834 407.017,-93.0729 415.037,-99.9959 417.604,-93.4834"/>
</g>
<!-- &#45;17 -->
<g id="node17" class="node"><title>&#45;17</title>
<polygon fill="lightgray" stroke="black" points="1445.71,-174.338 1416.71,-174.338 1416.71,-156.338 1445.71,-156.338 1445.71,-174.338"/>
<text text-anchor="middle" x="1431.21" y="-163.138" font-family="Times New Roman,serif" font-size="9.00">&#45;17</text>
</g>
<!-- &#45;17&#45;&gt;0 -->
<g id="edge5" class="edge"><title>&#45;17&#45;&gt;0</title>
<path fill="none" stroke="green" stroke-width="0.129844" stroke-dasharray="1,5" d="M1428.75,-156.159C1425.55,-145.521 1419.82,-126.495 1415.23,-111.229"/>
<polygon fill="green" stroke="green" stroke-width="0.129844" points="1418.51,-109.977 1412.28,-101.41 1411.81,-111.995 1418.51,-109.977"/>
</g>
<!-- &#45;17&#45;&gt;1 -->
<g id="edge10" class="edge"><title>&#45;17&#45;&gt;1</title>
<path fill="none" stroke="green" stroke-width="0.163508" stroke-dasharray="1,5" d="M1423.58,-155.939C1419.21,-151.688 1413.39,-146.86 1407.21,-144.125 1335.75,-112.485 1092.84,-94.5264 1014.08,-89.4315"/>
<polygon fill="green" stroke="green" stroke-width="0.163508" points="1014.3,-85.938 1004.1,-88.7979 1013.85,-92.924 1014.3,-85.938"/>
</g>
<!-- &#45;18 -->
<g id="node18" class="node"><title>&#45;18</title>
<polygon fill="lightgray" stroke="black" points="1710.71,-174.338 1681.71,-174.338 1681.71,-156.338 1710.71,-156.338 1710.71,-174.338"/>
<text text-anchor="middle" x="1696.21" y="-163.138" font-family="Times New Roman,serif" font-size="9.00">&#45;18</text>
</g>
<!-- &#45;18&#45;&gt;0 -->
<g id="edge42" class="edge"><title>&#45;18&#45;&gt;0</title>
<path fill="none" stroke="red" stroke-width="0.153392" d="M1688.49,-156.125C1684.1,-151.928 1678.28,-147.093 1672.21,-144.125 1590.79,-104.3 1481.69,-92.5647 1433.22,-89.2072"/>
<polygon fill="red" stroke="red" stroke-width="0.153392" points="1433.24,-85.7016 1423.04,-88.5658 1432.8,-92.6878 1433.24,-85.7016"/>
</g>
<!-- &#45;19 -->
<g id="node19" class="node"><title>&#45;19</title>
<polygon fill="lightgray" stroke="black" points="979.713,-174.338 950.713,-174.338 950.713,-156.338 979.713,-156.338 979.713,-174.338"/>
<text text-anchor="middle" x="965.213" y="-163.138" font-family="Times New Roman,serif" font-size="9.00">&#45;19</text>
</g>
<!-- &#45;19&#45;&gt;1 -->
<g id="edge31" class="edge"><title>&#45;19&#45;&gt;1</title>
<path fill="none" stroke="green" stroke-width="0.373517" d="M967.782,-156.159C971.122,-145.521 977.097,-126.495 981.891,-111.229"/>
<polygon fill="green" stroke="green" stroke-width="0.373517" points="985.317,-112 984.974,-101.41 978.639,-109.902 985.317,-112"/>
</g>
<!-- &#45;20 -->
<g id="node20" class="node"><title>&#45;20</title>
<polygon fill="lightgray" stroke="black" points="1026.71,-174.338 997.713,-174.338 997.713,-156.338 1026.71,-156.338 1026.71,-174.338"/>
<text text-anchor="middle" x="1012.21" y="-163.138" font-family="Times New Roman,serif" font-size="9.00">&#45;20</text>
</g>
<!-- &#45;20&#45;&gt;1 -->
<g id="edge47" class="edge"><title>&#45;20&#45;&gt;1</title>
<path fill="none" stroke="red" stroke-width="0.201688" stroke-dasharray="1,5" d="M1009.75,-156.159C1006.55,-145.521 1000.82,-126.495 996.23,-111.229"/>
<polygon fill="red" stroke="red" stroke-width="0.201688" points="999.509,-109.977 993.275,-101.41 992.806,-111.995 999.509,-109.977"/>
</g>
<!-- &#45;21 -->
<g id="node21" class="node"><title>&#45;21</title>
<polygon fill="lightgray" stroke="black" points="1535.71,-174.338 1506.71,-174.338 1506.71,-156.338 1535.71,-156.338 1535.71,-174.338"/>
<text text-anchor="middle" x="1521.21" y="-163.138" font-family="Times New Roman,serif" font-size="9.00">&#45;21</text>
</g>
<!-- &#45;21&#45;&gt;0 -->
<g id="edge20" class="edge"><title>&#45;21&#45;&gt;0</title>
<path fill="none" stroke="green" stroke-width="0.259705" stroke-dasharray="1,5" d="M1512.11,-156.162C1507.72,-152.356 1502.31,-147.856 1497.21,-144.125 1474.86,-127.768 1447.77,-111.073 1429.4,-100.176"/>
<polygon fill="green" stroke="green" stroke-width="0.259705" points="1431.05,-97.0862 1420.65,-95.0377 1427.5,-103.121 1431.05,-97.0862"/>
</g>
<!-- &#45;22 -->
<g id="node22" class="node"><title>&#45;22</title>
<polygon fill="lightgray" stroke="black" points="876.713,-240.551 847.713,-240.551 847.713,-222.551 876.713,-222.551 876.713,-240.551"/>
<text text-anchor="middle" x="862.213" y="-229.351" font-family="Times New Roman,serif" font-size="9.00">&#45;22</text>
</g>
<!-- &#45;22&#45;&gt;1 -->
<g id="edge35" class="edge"><title>&#45;22&#45;&gt;1</title>
<path fill="none" stroke="green" stroke-width="0.142363" d="M854.828,-222.22C841.317,-205.927 815.562,-169.248 833.213,-144.125 863.06,-101.644 928.273,-91.119 964.212,-88.608"/>
<polygon fill="green" stroke="green" stroke-width="0.142363" points="964.558,-92.0945 974.354,-88.0595 964.179,-85.1048 964.558,-92.0945"/>
</g>
<!-- 237 -->
<g id="node43" class="node"><title>237</title>
<ellipse fill="white" stroke="black" cx="911.213" cy="-165.338" rx="21.4286" ry="21.4286"/>
<text text-anchor="middle" x="911.213" y="-163.138" font-family="Times New Roman,serif" font-size="9.00">237</text>
</g>
<!-- &#45;22&#45;&gt;237 -->
<g id="edge28" class="edge"><title>&#45;22&#45;&gt;237</title>
<path fill="none" stroke="green" stroke-width="0.206552" stroke-dasharray="1,5" d="M868.419,-222.419C874.452,-214.512 883.924,-202.099 892.425,-190.959"/>
<polygon fill="green" stroke="green" stroke-width="0.206552" points="895.379,-192.858 898.663,-182.785 889.814,-188.611 895.379,-192.858"/>
</g>
<!-- &#45;23 -->
<g id="node23" class="node"><title>&#45;23</title>
<polygon fill="lightgray" stroke="black" points="597.713,-174.338 568.713,-174.338 568.713,-156.338 597.713,-156.338 597.713,-174.338"/>
<text text-anchor="middle" x="583.213" y="-163.138" font-family="Times New Roman,serif" font-size="9.00">&#45;23</text>
</g>
<!-- &#45;23&#45;&gt;1 -->
<g id="edge48" class="edge"><title>&#45;23&#45;&gt;1</title>
<path fill="none" stroke="green" stroke-width="0.225923" stroke-dasharray="1,5" d="M590.863,-155.97C595.23,-151.727 601.054,-146.898 607.213,-144.125 671.749,-115.07 889.721,-95.701 964.1,-89.8072"/>
<polygon fill="green" stroke="green" stroke-width="0.225923" points="964.681,-93.2726 974.379,-89.0065 964.137,-86.2937 964.681,-93.2726"/>
</g>
<!-- &#45;23&#45;&gt;2 -->
<g id="edge37" class="edge"><title>&#45;23&#45;&gt;2</title>
<path fill="none" stroke="green" stroke-width="0.127258" stroke-dasharray="1,5" d="M574.911,-156.003C570.537,-151.977 564.908,-147.335 559.213,-144.125 512.333,-117.703 450.999,-100.959 417.557,-93.1314"/>
<polygon fill="green" stroke="green" stroke-width="0.127258" points="418.26,-89.702 407.733,-90.9024 416.711,-96.5285 418.26,-89.702"/>
</g>
<!-- &#45;24 -->
<g id="node24" class="node"><title>&#45;24</title>
<polygon fill="lightgray" stroke="black" points="1355.71,-240.551 1326.71,-240.551 1326.71,-222.551 1355.71,-222.551 1355.71,-240.551"/>
<text text-anchor="middle" x="1341.21" y="-229.351" font-family="Times New Roman,serif" font-size="9.00">&#45;24</text>
</g>
<!-- &#45;25 -->
<g id="node25" class="node"><title>&#45;25</title>
<polygon fill="lightgray" stroke="black" points="1308.71,-174.338 1279.71,-174.338 1279.71,-156.338 1308.71,-156.338 1308.71,-174.338"/>
<text text-anchor="middle" x="1294.21" y="-163.138" font-family="Times New Roman,serif" font-size="9.00">&#45;25</text>
</g>
<!-- &#45;25&#45;&gt;0 -->
<g id="edge34" class="edge"><title>&#45;25&#45;&gt;0</title>
<path fill="none" stroke="green" stroke-width="0.120523" d="M1302.88,-156.106C1307.07,-152.288 1312.26,-147.794 1317.21,-144.125 1339.94,-127.302 1367.83,-110.604 1386.69,-99.8336"/>
<polygon fill="green" stroke="green" stroke-width="0.120523" points="1388.43,-102.874 1395.42,-94.9105 1384.99,-96.7781 1388.43,-102.874"/>
</g>
<!-- &#45;25&#45;&gt;1 -->
<g id="edge50" class="edge"><title>&#45;25&#45;&gt;1</title>
<path fill="none" stroke="red" stroke-width="0.125274" stroke-dasharray="1,5" d="M1286.51,-156.095C1282.12,-151.889 1276.3,-147.055 1270.21,-144.125 1182.51,-101.901 1064.74,-91.3836 1014.08,-88.7712"/>
<polygon fill="red" stroke="red" stroke-width="0.125274" points="1014.2,-85.2731 1004.05,-88.3144 1013.88,-92.2659 1014.2,-85.2731"/>
</g>
<!-- &#45;26 -->
<g id="node26" class="node"><title>&#45;26</title>
<polygon fill="lightgray" stroke="black" points="1073.71,-174.338 1044.71,-174.338 1044.71,-156.338 1073.71,-156.338 1073.71,-174.338"/>
<text text-anchor="middle" x="1059.21" y="-163.138" font-family="Times New Roman,serif" font-size="9.00">&#45;26</text>
</g>
<!-- &#45;26&#45;&gt;0 -->
<g id="edge18" class="edge"><title>&#45;26&#45;&gt;0</title>
<path fill="none" stroke="green" stroke-width="0.124157" d="M1066.89,-156.031C1071.27,-151.807 1077.09,-146.975 1083.21,-144.125 1186.88,-95.8756 1326.56,-88.6953 1383,-87.8711"/>
<polygon fill="green" stroke="green" stroke-width="0.124157" points="1383.18,-91.3698 1393.14,-87.7807 1383.11,-84.3701 1383.18,-91.3698"/>
</g>
<!-- &#45;26&#45;&gt;1 -->
<g id="edge38" class="edge"><title>&#45;26&#45;&gt;1</title>
<path fill="none" stroke="green" stroke-width="0.301457" d="M1051.72,-156.159C1040.85,-144.289 1020.41,-121.972 1005.86,-106.092"/>
<polygon fill="green" stroke="green" stroke-width="0.301457" points="1008.21,-103.474 998.877,-98.4632 1003.05,-108.202 1008.21,-103.474"/>
</g>
<!-- &#45;26&#45;&gt;2 -->
<g id="edge55" class="edge"><title>&#45;26&#45;&gt;2</title>
<path fill="none" stroke="green" stroke-width="0.367665" stroke-dasharray="1,5" d="M1052.04,-156.237C1047.65,-151.853 1041.65,-146.799 1035.21,-144.125 1006.18,-132.068 533.233,-97.8499 418.256,-89.6795"/>
<polygon fill="green" stroke="green" stroke-width="0.367665" points="418.213,-86.1677 407.99,-88.9517 417.718,-93.1502 418.213,-86.1677"/>
</g>
<!-- &#45;27 -->
<g id="node27" class="node"><title>&#45;27</title>
<polygon fill="lightgray" stroke="black" points="503.713,-174.338 474.713,-174.338 474.713,-156.338 503.713,-156.338 503.713,-174.338"/>
<text text-anchor="middle" x="489.213" y="-163.138" font-family="Times New Roman,serif" font-size="9.00">&#45;27</text>
</g>
<!-- &#45;27&#45;&gt;1 -->
<g id="edge58" class="edge"><title>&#45;27&#45;&gt;1</title>
<path fill="none" stroke="red" stroke-width="0.259448" stroke-dasharray="1,5" d="M496.052,-156.308C500.248,-151.947 505.998,-146.894 512.213,-144.125 553.841,-125.577 872.222,-97.7143 964.328,-89.9715"/>
<polygon fill="red" stroke="red" stroke-width="0.259448" points="964.731,-93.4501 974.405,-89.129 964.148,-86.4744 964.731,-93.4501"/>
</g>
<!-- &#45;27&#45;&gt;2 -->
<g id="edge45" class="edge"><title>&#45;27&#45;&gt;2</title>
<path fill="none" stroke="green" stroke-width="0.506295" d="M479.473,-155.994C475.138,-152.317 469.952,-147.968 465.213,-144.125 447.669,-129.896 427.359,-114.099 412.791,-102.883"/>
<polygon fill="green" stroke="green" stroke-width="0.506295" points="414.602,-99.8612 404.539,-96.5471 410.339,-105.413 414.602,-99.8612"/>
</g>
<!-- &#45;28 -->
<g id="node28" class="node"><title>&#45;28</title>
<polygon fill="lightgray" stroke="black" points="1355.71,-174.338 1326.71,-174.338 1326.71,-156.338 1355.71,-156.338 1355.71,-174.338"/>
<text text-anchor="middle" x="1341.21" y="-163.138" font-family="Times New Roman,serif" font-size="9.00">&#45;28</text>
</g>
<!-- &#45;28&#45;&gt;0 -->
<g id="edge63" class="edge"><title>&#45;28&#45;&gt;0</title>
<path fill="none" stroke="red" stroke-width="0.368747" d="M1348.38,-156.159C1358.73,-144.354 1378.14,-122.219 1392.04,-106.355"/>
<polygon fill="red" stroke="red" stroke-width="0.368747" points="1394.78,-108.547 1398.74,-98.7198 1389.51,-103.932 1394.78,-108.547"/>
</g>
<!-- &#45;28&#45;&gt;1 -->
<g id="edge11" class="edge"><title>&#45;28&#45;&gt;1</title>
<path fill="none" stroke="red" stroke-width="0.351559" stroke-dasharray="1,5" d="M1333.54,-156.028C1329.16,-151.802 1323.34,-146.971 1317.21,-144.125 1212.34,-95.4094 1070.95,-88.5079 1014.26,-87.815"/>
<polygon fill="red" stroke="red" stroke-width="0.351559" points="1014.1,-84.3141 1004.08,-87.7487 1014.06,-91.3139 1014.1,-84.3141"/>
</g>
<!-- &#45;29 -->
<g id="node29" class="node"><title>&#45;29</title>
<polygon fill="lightgray" stroke="black" points="259.713,-174.338 230.713,-174.338 230.713,-156.338 259.713,-156.338 259.713,-174.338"/>
<text text-anchor="middle" x="245.213" y="-163.138" font-family="Times New Roman,serif" font-size="9.00">&#45;29</text>
</g>
<!-- &#45;29&#45;&gt;2 -->
<g id="edge39" class="edge"><title>&#45;29&#45;&gt;2</title>
<path fill="none" stroke="red" stroke-width="0.316626" d="M253.248,-156.208C257.46,-152.234 262.849,-147.577 268.213,-144.125 301.276,-122.848 343.733,-105.619 369.684,-96.0763"/>
<polygon fill="red" stroke="red" stroke-width="0.316626" points="371.178,-99.2584 379.403,-92.5792 368.808,-92.6719 371.178,-99.2584"/>
</g>
<!-- &#45;30 -->
<g id="node30" class="node"><title>&#45;30</title>
<polygon fill="lightgray" stroke="black" points="871.713,-174.338 842.713,-174.338 842.713,-156.338 871.713,-156.338 871.713,-174.338"/>
<text text-anchor="middle" x="857.213" y="-163.138" font-family="Times New Roman,serif" font-size="9.00">&#45;30</text>
</g>
<!-- &#45;30&#45;&gt;1 -->
<g id="edge52" class="edge"><title>&#45;30&#45;&gt;1</title>
<path fill="none" stroke="red" stroke-width="0.593845" stroke-dasharray="1,5" d="M866.184,-155.968C870.542,-152.12 875.962,-147.64 881.213,-144.125 909.088,-125.464 943.906,-108.337 966.347,-98.0138"/>
<polygon fill="red" stroke="red" stroke-width="0.593845" points="968.053,-101.083 975.717,-93.7682 965.164,-94.7072 968.053,-101.083"/>
</g>
<!-- &#45;31 -->
<g id="node31" class="node"><title>&#45;31</title>
<polygon fill="lightgray" stroke="black" points="1582.71,-174.338 1553.71,-174.338 1553.71,-156.338 1582.71,-156.338 1582.71,-174.338"/>
<text text-anchor="middle" x="1568.21" y="-163.138" font-family="Times New Roman,serif" font-size="9.00">&#45;31</text>
</g>
<!-- &#45;31&#45;&gt;0 -->
<g id="edge27" class="edge"><title>&#45;31&#45;&gt;0</title>
<path fill="none" stroke="green" stroke-width="0.253932" stroke-dasharray="1,5" d="M1560.23,-156.132C1556.03,-152.139 1550.63,-147.487 1545.21,-144.125 1508.41,-121.294 1460.71,-104.167 1432.4,-95.1249"/>
<polygon fill="green" stroke="green" stroke-width="0.253932" points="1433.15,-91.6927 1422.56,-92.0601 1431.07,-98.376 1433.15,-91.6927"/>
</g>
<!-- &#45;32 -->
<g id="node32" class="node"><title>&#45;32</title>
<polygon fill="lightgray" stroke="black" points="306.713,-174.338 277.713,-174.338 277.713,-156.338 306.713,-156.338 306.713,-174.338"/>
<text text-anchor="middle" x="292.213" y="-163.138" font-family="Times New Roman,serif" font-size="9.00">&#45;32</text>
</g>
<!-- &#45;32&#45;&gt;2 -->
<g id="edge19" class="edge"><title>&#45;32&#45;&gt;2</title>
<path fill="none" stroke="green" stroke-width="0.174426" d="M300.998,-156.262C305.216,-152.478 310.39,-147.967 315.213,-144.125 334.202,-128.996 356.793,-112.912 372.763,-101.842"/>
<polygon fill="green" stroke="green" stroke-width="0.174426" points="375.071,-104.502 381.324,-95.9488 371.102,-98.7364 375.071,-104.502"/>
</g>
<!-- &#45;33 -->
<g id="node33" class="node"><title>&#45;33</title>
<polygon fill="lightgray" stroke="black" points="1261.71,-174.338 1232.71,-174.338 1232.71,-156.338 1261.71,-156.338 1261.71,-174.338"/>
<text text-anchor="middle" x="1247.21" y="-163.138" font-family="Times New Roman,serif" font-size="9.00">&#45;33</text>
</g>
<!-- &#45;33&#45;&gt;0 -->
<g id="edge61" class="edge"><title>&#45;33&#45;&gt;0</title>
<path fill="none" stroke="red" stroke-width="0.178741" d="M1255.2,-156.126C1259.4,-152.132 1264.79,-147.48 1270.21,-144.125 1307.48,-121.078 1355.83,-103.922 1384.3,-94.9498"/>
<polygon fill="red" stroke="red" stroke-width="0.178741" points="1385.64,-98.1997 1394.17,-91.9165 1383.58,-91.5086 1385.64,-98.1997"/>
</g>
<!-- &#45;33&#45;&gt;2 -->
<g id="edge25" class="edge"><title>&#45;33&#45;&gt;2</title>
<path fill="none" stroke="green" stroke-width="0.438856" stroke-dasharray="1,5" d="M1232.7,-158.484C1220.3,-153.757 1201.88,-147.377 1185.21,-144.125 961.317,-100.444 900.754,-124.337 673.213,-108.125 579.177,-101.425 467.389,-93.3096 418.362,-89.743"/>
<polygon fill="green" stroke="green" stroke-width="0.438856" points="418.314,-86.2303 408.086,-88.9952 417.806,-93.2119 418.314,-86.2303"/>
</g>
<!-- &#45;34 -->
<g id="node34" class="node"><title>&#45;34</title>
<polygon fill="lightgray" stroke="black" points="353.713,-174.338 324.713,-174.338 324.713,-156.338 353.713,-156.338 353.713,-174.338"/>
<text text-anchor="middle" x="339.213" y="-163.138" font-family="Times New Roman,serif" font-size="9.00">&#45;34</text>
</g>
<!-- &#45;34&#45;&gt;2 -->
<g id="edge16" class="edge"><title>&#45;34&#45;&gt;2</title>
<path fill="none" stroke="red" stroke-width="0.395898" d="M344.992,-156.159C353.044,-144.764 367.896,-123.743 378.999,-108.029"/>
<polygon fill="red" stroke="red" stroke-width="0.395898" points="382.111,-109.69 385.023,-99.5036 376.394,-105.651 382.111,-109.69"/>
</g>
<!-- 0&#45;&gt;0 -->
<g id="edge33" class="edge"><title>0&#45;&gt;0</title>
<path fill="none" stroke="green" stroke-width="0.136059" stroke-dasharray="1,5" d="M1418.98,-97.6398C1429.5,-103.566 1441.06,-99.9898 1441.06,-86.9117 1441.06,-77.9205 1435.6,-73.4205 1428.76,-73.4117"/>
<polygon fill="green" stroke="green" stroke-width="0.136059" points="1427.65,-70.0903 1418.98,-76.1835 1429.56,-76.8252 1427.65,-70.0903"/>
</g>
<!-- 0&#45;&gt;6 -->
<g id="edge54" class="edge"><title>0&#45;&gt;6</title>
<path fill="none" stroke="red" stroke-width="0.14581" d="M1402.85,-73.0612C1401.46,-63.601 1401.12,-50.4747 1401.81,-39.1812"/>
<polygon fill="red" stroke="red" stroke-width="0.14581" points="1405.31,-39.3866 1402.79,-29.0944 1398.34,-38.7078 1405.31,-39.3866"/>
</g>
<!-- 1&#45;&gt;1 -->
<g id="edge29" class="edge"><title>1&#45;&gt;1</title>
<path fill="none" stroke="green" stroke-width="0.376967" stroke-dasharray="1,5" d="M999.98,-97.6398C1010.5,-103.566 1022.06,-99.9898 1022.06,-86.9117 1022.06,-77.9205 1016.6,-73.4205 1009.76,-73.4117"/>
<polygon fill="green" stroke="green" stroke-width="0.376967" points="1008.65,-70.0903 999.98,-76.1835 1010.56,-76.8252 1008.65,-70.0903"/>
</g>
<!-- 259&#45;&gt;2 -->
<g id="edge32" class="edge"><title>259&#45;&gt;2</title>
<path fill="none" stroke="green" stroke-width="0.416965" stroke-dasharray="1,5" d="M393.213,-143.857C393.213,-134.116 393.213,-122.399 393.213,-112.211"/>
<polygon fill="green" stroke="green" stroke-width="0.416965" points="396.713,-111.921 393.213,-101.921 389.713,-111.921 396.713,-111.921"/>
</g>
<!-- 161&#45;&gt;1 -->
<g id="edge46" class="edge"><title>161&#45;&gt;1</title>
<path fill="none" stroke="green" stroke-width="0.14342" d="M744.53,-153.052C750.022,-149.828 756.226,-146.539 762.213,-144.125 833.051,-115.565 922.361,-98.6239 964.741,-91.6482"/>
<polygon fill="green" stroke="green" stroke-width="0.14342" points="965.378,-95.0908 974.698,-90.0519 964.27,-88.179 965.378,-95.0908"/>
</g>
<!-- 6&#45;&gt;0 -->
<g id="edge40" class="edge"><title>6&#45;&gt;0</title>
<path fill="none" stroke="green" stroke-width="0.380126" stroke-dasharray="1,5" d="M1413.63,-29.0944C1414.99,-38.6549 1415.31,-51.8055 1414.59,-63.0473"/>
<polygon fill="green" stroke="green" stroke-width="0.380126" points="1411.1,-62.7603 1413.58,-73.0612 1418.06,-63.463 1411.1,-62.7603"/>
</g>
<!-- 231&#45;&gt;2 -->
<g id="edge62" class="edge"><title>231&#45;&gt;2</title>
<path fill="none" stroke="green" stroke-width="0.181584" stroke-dasharray="1,5" d="M38.4203,-152.765C43.9077,-149.529 50.1369,-146.305 56.2132,-144.125 167.961,-104.028 310.976,-92.2682 368.054,-89.0454"/>
<polygon fill="green" stroke="green" stroke-width="0.181584" points="368.485,-92.5277 378.288,-88.5088 368.119,-85.5373 368.485,-92.5277"/>
</g>
<!-- 139&#45;&gt;6 -->
<g id="edge56" class="edge"><title>139&#45;&gt;6</title>
<path fill="none" stroke="green" stroke-width="0.206217" d="M724.312,-83.8149C826.867,-73.623 1272.84,-29.3025 1383.36,-18.3189"/>
<polygon fill="green" stroke="green" stroke-width="0.206217" points="1383.93,-21.7798 1393.54,-17.3079 1383.24,-14.8141 1383.93,-21.7798"/>
</g>
<!-- 237&#45;&gt;1 -->
<g id="edge3" class="edge"><title>237&#45;&gt;1</title>
<path fill="none" stroke="red" stroke-width="0.231252" d="M925.884,-149.963C938.87,-137.24 957.846,-118.646 971.639,-105.132"/>
<polygon fill="red" stroke="red" stroke-width="0.231252" points="974.383,-107.343 979.076,-97.8443 969.484,-102.343 974.383,-107.343"/>
</g>
<!-- 145&#45;&gt;1 -->
<g id="edge43" class="edge"><title>145&#45;&gt;1</title>
<path fill="none" stroke="green" stroke-width="0.119251" d="M1138.45,-152.181C1134.23,-149.365 1129.64,-146.5 1125.21,-144.125 1087.28,-123.776 1040.37,-105.864 1012.73,-95.995"/>
<polygon fill="green" stroke="green" stroke-width="0.119251" points="1013.74,-92.6376 1003.14,-92.6181 1011.41,-99.2403 1013.74,-92.6376"/>
</g>
</g>
</svg>
